<svg width="30" height="30" viewBox="0 0 30 30" fill="none" xmlns="http://www.w3.org/2000/svg">
<path fill-rule="evenodd" clip-rule="evenodd" d="M9.00013 7.49994V8.99994H7.00063C6.344 9.00008 5.71128 9.24631 5.22728 9.69005C4.74328 10.1338 4.44316 10.7428 4.38613 11.3969L3.14713 25.6469C3.11553 26.0093 3.1596 26.3743 3.27654 26.7188C3.39348 27.0632 3.58073 27.3796 3.82642 27.6479C4.07211 27.9161 4.37087 28.1304 4.70375 28.2771C5.03663 28.4238 5.39636 28.4997 5.76013 28.4999H24.2401C24.604 28.4999 24.9639 28.4241 25.297 28.2775C25.63 28.1309 25.929 27.9167 26.1748 27.6484C26.4207 27.3802 26.6081 27.0637 26.7251 26.7191C26.8421 26.3746 26.8862 26.0095 26.8546 25.6469L25.6156 11.3969C25.5586 10.7425 25.2582 10.1333 24.7739 9.68954C24.2896 9.24577 23.6565 8.99971 22.9996 8.99994H21.0001V7.49994C21.0001 5.90864 20.368 4.38252 19.2428 3.2573C18.1175 2.13208 16.5914 1.49994 15.0001 1.49994C13.4088 1.49994 11.8827 2.13208 10.7575 3.2573C9.63227 4.38252 9.00013 5.90864 9.00013 7.49994ZM15.0001 3.74994C14.0056 3.74994 13.0517 4.14503 12.3485 4.84829C11.6452 5.55155 11.2501 6.50538 11.2501 7.49994V8.99994H18.7501V7.49994C18.7501 6.50538 18.355 5.55155 17.6518 4.84829C16.9485 4.14503 15.9947 3.74994 15.0001 3.74994ZM11.2501 14.9999C11.2501 15.9945 11.6452 16.9483 12.3485 17.6516C13.0517 18.3549 14.0056 18.7499 15.0001 18.7499C15.9947 18.7499 16.9485 18.3549 17.6518 17.6516C18.355 16.9483 18.7501 15.9945 18.7501 14.9999V13.1249C18.7501 12.8266 18.8687 12.5404 19.0796 12.3294C19.2906 12.1185 19.5768 11.9999 19.8751 11.9999C20.1735 11.9999 20.4596 12.1185 20.6706 12.3294C20.8816 12.5404 21.0001 12.8266 21.0001 13.1249V14.9999C21.0001 16.5912 20.368 18.1174 19.2428 19.2426C18.1175 20.3678 16.5914 20.9999 15.0001 20.9999C13.4088 20.9999 11.8827 20.3678 10.7575 19.2426C9.63227 18.1174 9.00013 16.5912 9.00013 14.9999V13.1249C9.00013 12.8266 9.11865 12.5404 9.32963 12.3294C9.54061 12.1185 9.82676 11.9999 10.1251 11.9999C10.4235 11.9999 10.7096 12.1185 10.9206 12.3294C11.1316 12.5404 11.2501 12.8266 11.2501 13.1249V14.9999Z" fill="#383838" fill-opacity="0.6"/>
</svg>
