<svg width="30" height="30" viewBox="0 0 30 30" fill="none" xmlns="http://www.w3.org/2000/svg">
<path d="M14.4795 25.3726L14.472 25.3681L14.4435 25.3531C13.8516 25.031 13.2703 24.6899 12.7005 24.3301C11.342 23.4753 10.0476 22.5228 8.8275 21.4801C6.0675 19.0996 3 15.5281 3 11.2501C3.00013 9.85428 3.43297 8.49284 4.23893 7.35323C5.04488 6.21361 6.1843 5.35187 7.5003 4.88667C8.8163 4.42146 10.2442 4.37566 11.5873 4.75559C12.9304 5.13551 14.1227 5.92246 15 7.00809C15.8773 5.92246 17.0696 5.13551 18.4127 4.75559C19.7558 4.37566 21.1837 4.42146 22.4997 4.88667C23.8157 5.35187 24.9551 6.21361 25.7611 7.35323C26.567 8.49284 26.9999 9.85428 27 11.2501C27 15.5281 23.934 19.0996 21.1725 21.4801C19.439 22.9612 17.557 24.2591 15.5565 25.3531L15.528 25.3681L15.5205 25.3726H15.5175C15.3581 25.457 15.1805 25.5013 15.0002 25.5016C14.8198 25.5018 14.6421 25.4581 14.4825 25.3741L14.4795 25.3726Z" fill="#383838" fill-opacity="0.6"/>
</svg>
