<svg width="30" height="30" viewBox="0 0 30 30" fill="none" xmlns="http://www.w3.org/2000/svg">
<path d="M14.4795 25.3728L14.472 25.3683L14.4435 25.3533C13.8516 25.0313 13.2703 24.6901 12.7005 24.3303C11.342 23.4756 10.0476 22.5231 8.8275 21.4803C6.0675 19.0998 3 15.5283 3 11.2503C3.00013 9.85453 3.43297 8.49309 4.23893 7.35347C5.04488 6.21385 6.1843 5.35212 7.5003 4.88691C8.8163 4.4217 10.2442 4.37591 11.5873 4.75583C12.9304 5.13575 14.1227 5.92271 15 7.00834C15.8773 5.92271 17.0696 5.13575 18.4127 4.75583C19.7558 4.37591 21.1837 4.4217 22.4997 4.88691C23.8157 5.35212 24.9551 6.21385 25.7611 7.35347C26.567 8.49309 26.9999 9.85453 27 11.2503C27 15.5283 23.934 19.0998 21.1725 21.4803C19.439 22.9615 17.557 24.2594 15.5565 25.3533L15.528 25.3683L15.5205 25.3728H15.5175C15.3581 25.4573 15.1805 25.5015 15.0002 25.5018C14.8198 25.5021 14.6421 25.4583 14.4825 25.3743L14.4795 25.3728Z" fill="#383838"/>
</svg>
