<svg width="30" height="30" viewBox="0 0 30 30" fill="none" xmlns="http://www.w3.org/2000/svg">
<path fill-rule="evenodd" clip-rule="evenodd" d="M17.67 7.82993C17.8807 8.04086 17.999 8.3268 17.999 8.62493C17.999 8.92305 17.8807 9.20899 17.67 9.41993L12.09 14.9999L17.67 20.5799C17.7805 20.6829 17.8692 20.8071 17.9307 20.9451C17.9921 21.0831 18.0252 21.2321 18.0279 21.3831C18.0305 21.5342 18.0028 21.6842 17.9462 21.8243C17.8896 21.9644 17.8054 22.0917 17.6985 22.1985C17.5917 22.3053 17.4645 22.3895 17.3244 22.4461C17.1843 22.5027 17.0343 22.5305 16.8832 22.5278C16.7321 22.5251 16.5832 22.4921 16.4452 22.4306C16.3072 22.3691 16.183 22.2805 16.08 22.1699L9.70499 15.7949C9.49431 15.584 9.37598 15.2981 9.37598 14.9999C9.37598 14.7018 9.49431 14.4159 9.70499 14.2049L16.08 7.82993C16.2909 7.61925 16.5769 7.50092 16.875 7.50092C17.1731 7.50092 17.459 7.61925 17.67 7.82993Z" fill="#383838"/>
</svg>
