<svg width="30" height="30" viewBox="0 0 30 30" fill="none" xmlns="http://www.w3.org/2000/svg">
<path d="M15.0001 11.9999C16.1935 11.9999 17.3381 11.5258 18.182 10.6819C19.0259 9.83794 19.5001 8.69335 19.5001 7.49988C19.5001 6.3064 19.0259 5.16181 18.182 4.3179C17.3381 3.47398 16.1935 2.99988 15.0001 2.99988C13.8066 2.99988 12.662 3.47398 11.8181 4.3179C10.9742 5.16181 10.5001 6.3064 10.5001 7.49988C10.5001 8.69335 10.9742 9.83794 11.8181 10.6819C12.662 11.5258 13.8066 11.9999 15.0001 11.9999ZM5.19755 21.7394C5.0583 22.1116 5.04294 22.5188 5.15375 22.9004C5.26456 23.282 5.49562 23.6177 5.81255 23.8574C8.43956 25.8989 11.673 27.0049 15.0001 26.9999C18.4651 26.9999 21.6571 25.8239 24.1966 23.8499C24.8416 23.3504 25.1026 22.4954 24.8086 21.7349C24.0469 19.7519 22.7019 18.0465 20.951 16.8437C19.2001 15.6409 17.1257 14.9973 15.0015 14.9978C12.8773 14.9983 10.8032 15.6429 9.05285 16.8464C7.30253 18.05 5.95829 19.7561 5.19755 21.7394Z" fill="#383838" fill-opacity="0.6"/>
</svg>
