<svg width="21" height="22" viewBox="0 0 21 22" fill="none" xmlns="http://www.w3.org/2000/svg">
<path fill-rule="evenodd" clip-rule="evenodd" d="M10.1744 20.3796L10.1776 20.3806C10.3844 20.4709 10.4999 20.4499 10.4999 20.4499C10.4999 20.4499 10.6154 20.4709 10.8233 20.3806L10.8254 20.3796L10.8317 20.3764L10.8506 20.368C10.9503 20.3217 11.0487 20.2727 11.1457 20.221C11.341 20.1202 11.614 19.969 11.9405 19.7664C12.5915 19.3632 13.4578 18.7521 14.3282 17.9131C16.067 16.2373 17.8499 13.6176 17.8499 9.94991C17.8499 8.9847 17.6598 8.02893 17.2904 7.13719C16.921 6.24545 16.3796 5.43519 15.6971 4.75268C15.0146 4.07017 14.2044 3.52877 13.3126 3.1594C12.4209 2.79003 11.4651 2.59991 10.4999 2.59991C9.53469 2.59991 8.57892 2.79003 7.68718 3.1594C6.79544 3.52877 5.98518 4.07017 5.30267 4.75268C4.62016 5.43519 4.07876 6.24545 3.70939 7.13719C3.34002 8.02893 3.1499 8.9847 3.1499 9.94991C3.1499 13.6165 4.9328 16.2373 6.67265 17.9131C7.40109 18.6128 8.20103 19.2339 9.0593 19.7664C9.39172 19.9728 9.7337 20.1634 10.0841 20.3376L10.1492 20.368L10.1681 20.3764L10.1744 20.3796ZM10.4999 12.3124C11.1265 12.3124 11.7274 12.0635 12.1704 11.6205C12.6135 11.1774 12.8624 10.5765 12.8624 9.94991C12.8624 9.32334 12.6135 8.72243 12.1704 8.27938C11.7274 7.83632 11.1265 7.58741 10.4999 7.58741C9.87333 7.58741 9.27242 7.83632 8.82936 8.27938C8.38631 8.72243 8.1374 9.32334 8.1374 9.94991C8.1374 10.5765 8.38631 11.1774 8.82936 11.6205C9.27242 12.0635 9.87333 12.3124 10.4999 12.3124Z" fill="#383838" fill-opacity="0.6"/>
</svg>
