<svg width="53" height="42" viewBox="0 0 53 42" fill="none" xmlns="http://www.w3.org/2000/svg">
<path d="M0 5.04C0 2.25648 2.26761 0 5.06485 0H47.9352C50.7324 0 53 2.25648 53 5.04V36.96C53 39.7435 50.7324 42 47.9352 42H5.06484C2.2676 42 0 39.7435 0 36.96V5.04Z" fill="#383838"/>
<path fill-rule="evenodd" clip-rule="evenodd" d="M23.1162 11.1927H18.0967C17.2735 14.2566 16.1998 17.2471 14.8864 20.1337C14.2243 21.6328 13.4852 22.7843 12.7384 24.1598C12.4536 24.693 10.321 27.6605 10.321 27.8459C11.749 28.8344 13.2322 29.74 14.7632 30.5584C15.533 30.5584 19.9675 23.9202 20.26 22.7843L22.5003 30.3961H26.188L22.8545 21.4551C22.7236 21.0069 22.6158 20.8755 22.9392 20.5587C24.0632 19.4382 25.1102 18.3022 26.2342 17.1739C25.186 16.3839 24.0227 15.7609 22.7852 15.327C21.8461 14.9841 20.8731 14.7431 19.8828 14.6083C20.152 13.8394 20.5809 13.1366 21.141 12.5464C21.701 11.9563 22.3795 11.4922 23.1316 11.185L23.1162 11.1927ZM25.6491 21.3315C25.7824 21.3345 25.9118 21.377 26.0212 21.4535C26.1306 21.5301 26.215 21.6373 26.2639 21.7618C26.3129 21.8863 26.3241 22.0225 26.2962 22.1534C26.2684 22.2843 26.2027 22.404 26.1073 22.4976C26.012 22.5911 25.8913 22.6544 25.7603 22.6794C25.6293 22.7044 25.4939 22.6901 25.371 22.6382C25.2481 22.5863 25.1432 22.4991 25.0694 22.3877C24.9956 22.2762 24.9562 22.1453 24.9562 22.0115C24.9572 21.9212 24.9759 21.8319 25.0113 21.7489C25.0467 21.6658 25.098 21.5906 25.1623 21.5274C25.2267 21.4643 25.3028 21.4145 25.3863 21.3808C25.4698 21.3472 25.5591 21.3304 25.6491 21.3315ZM26.6499 24.3607C26.7832 24.3638 26.9127 24.4062 27.022 24.4828C27.1314 24.5593 27.2158 24.6666 27.2648 24.7911C27.3137 24.9156 27.3249 25.0518 27.2971 25.1827C27.2692 25.3135 27.2035 25.4333 27.1082 25.5268C27.0128 25.6204 26.8921 25.6836 26.7611 25.7086C26.6302 25.7337 26.4947 25.7193 26.3718 25.6674C26.2489 25.6155 26.144 25.5284 26.0702 25.4169C25.9965 25.3055 25.9571 25.1746 25.957 25.0408C25.9611 24.859 26.0358 24.686 26.1653 24.5589C26.2949 24.4318 26.4688 24.3607 26.6499 24.3607ZM27.5276 27.3745C27.6612 27.3776 27.7909 27.4203 27.9004 27.4972C28.01 27.5741 28.0944 27.6818 28.1431 27.8067C28.1918 27.9316 28.2025 28.0682 28.1741 28.1993C28.1456 28.3304 28.0791 28.4501 27.983 28.5433C27.8869 28.6366 27.7655 28.6992 27.634 28.7233C27.5025 28.7475 27.3669 28.732 27.2441 28.679C27.1214 28.6259 27.017 28.5376 26.9441 28.4251C26.8713 28.3126 26.8332 28.181 26.8347 28.0469C26.8357 27.9569 26.8545 27.868 26.8899 27.7854C26.9254 27.7027 26.9768 27.628 27.0413 27.5655C27.1057 27.5029 27.1819 27.4539 27.2654 27.4211C27.3488 27.3883 27.438 27.3725 27.5276 27.3745ZM26.5806 30.4038C25.7338 27.3668 24.194 24.5617 23.3472 21.5169C23.2394 21.1305 23.1162 20.976 23.3857 20.6978L26.5729 17.429C27.6858 16.5267 28.9467 15.8259 30.2991 15.3579C31.2429 15.0129 32.2212 14.772 33.2169 14.6393C32.9446 13.8707 32.5138 13.1686 31.9527 12.5787C31.3915 11.9887 30.7126 11.5244 29.9604 11.2159H34.8952C35.7209 14.28 36.7973 17.2705 38.1132 20.1568C38.7376 21.5215 39.442 22.8478 40.2227 24.1289C40.5152 24.6312 42.6709 27.7223 42.6709 27.8691C41.981 28.3698 41.2639 28.8316 40.5229 29.2524C39.7777 29.7373 39.0067 30.181 38.2133 30.5815C37.4435 30.5815 33.163 23.9434 32.8243 22.792L30.2683 30.427H26.5806V30.4038Z" fill="#FFE600"/>
<path fill-rule="evenodd" clip-rule="evenodd" d="M25.8879 10.7446C25.6878 10.7446 24.533 10.1573 24.1711 10.08C24.1711 11.4169 24.6177 11.6255 24.941 12.6302L25.8802 11.9733C26.0397 12.108 26.2415 12.1819 26.4499 12.1819C26.6596 12.1811 26.8619 12.1042 27.0196 11.9656L27.9435 12.6688C28.313 11.6101 28.7134 11.386 28.7134 10.08C28.3592 10.1573 27.1736 10.7523 27.0119 10.7523H26.9581C26.8067 10.6394 26.6231 10.5784 26.4345 10.5784C26.246 10.5784 26.0624 10.6394 25.911 10.7523L25.8879 10.7446Z" fill="#FFE600"/>
<path fill-rule="evenodd" clip-rule="evenodd" d="M22.6461 11.7107C22.9225 11.5475 23.2107 11.4054 23.5084 11.2857C23.6292 12.4141 23.9664 13.5084 24.5015 14.5082C24.8549 15.2114 25.2862 15.8725 25.7872 16.4787C24.2419 15.2949 22.4064 14.5526 20.4751 14.3304C20.6467 13.7715 20.9269 13.2522 21.2995 12.8025C21.6721 12.3529 22.1298 11.9818 22.6461 11.7107Z" fill="#FFE600"/>
<path fill-rule="evenodd" clip-rule="evenodd" d="M30.4451 11.7185C30.1689 11.5528 29.8807 11.4081 29.5829 11.2857C29.4584 12.4133 29.1213 13.5069 28.5898 14.5082C28.2357 15.2152 27.8017 15.879 27.2964 16.4865C28.8439 15.3013 30.6822 14.5589 32.6162 14.3382C32.4442 13.7794 32.1639 13.2603 31.7913 12.8107C31.4187 12.3611 30.9612 11.9899 30.4451 11.7185Z" fill="#FFE600"/>
</svg>
