<svg width="206" height="55" viewBox="0 0 206 55" fill="none" xmlns="http://www.w3.org/2000/svg">
<path d="M0 5.11579C0 2.29042 2.29454 0 5.125 0H200.302C203.133 0 205.427 2.29042 205.427 5.11579V49.0263C205.427 51.8517 203.133 54.1421 200.302 54.1421H5.125C2.29454 54.1421 0 51.8517 0 49.0263V5.11579Z" fill="#383838"/>
<path d="M49.0007 43.0266V37.0582H50.5724L52.2295 40.0851L53.8695 37.0582H55.407V43.0266H53.8695V39.6076L52.6309 41.8756H51.7768L50.5382 39.6076V43.0266H49.0007Z" fill="white"/>
<path d="M55.9934 43.0266L58.18 37.0582H59.7175L61.8956 43.0266H60.2727L59.8627 41.8841H57.864L57.454 43.0266H55.9934ZM58.2996 40.7075H59.4271L58.8634 38.934L58.2996 40.7075Z" fill="white"/>
<path d="M62.4932 43.0266V37.0582H66.5078V38.3201H64.0307V43.0266H62.4932Z" fill="white"/>
<path d="M65.9407 43.0266L68.1274 37.0582H69.6649L71.843 43.0266H70.2201L69.8101 41.8841H67.8114L67.4014 43.0266H65.9407ZM68.247 40.7075H69.3745L68.8107 38.934L68.247 40.7075Z" fill="white"/>
<path d="M74.5373 43.1375C73.9793 43.1375 73.5123 43.0551 73.1365 42.8902C72.7606 42.7254 72.4759 42.4895 72.2823 42.1825C72.0944 41.8699 71.9919 41.4976 71.9748 41.0656H73.5636C73.5806 41.2475 73.6205 41.4038 73.6831 41.5345C73.7515 41.6653 73.854 41.7676 73.9906 41.8415C74.1273 41.9097 74.3095 41.9438 74.5373 41.9438C74.879 41.9438 75.1267 41.8813 75.2804 41.7562C75.4342 41.6312 75.5111 41.4549 75.5111 41.2276C75.5111 41.0798 75.4826 40.9491 75.4256 40.8354C75.3687 40.7217 75.2634 40.6336 75.1096 40.5711C74.9559 40.5085 74.7366 40.4773 74.4519 40.4773H73.9052V39.4371H74.4519C74.7708 39.4371 74.99 39.3688 75.1096 39.2324C75.2349 39.096 75.2975 38.9425 75.2975 38.772C75.2975 38.6015 75.2463 38.4537 75.1438 38.3286C75.0413 38.2036 74.8391 38.1411 74.5373 38.1411C74.3551 38.1411 74.2042 38.1695 74.0846 38.2263C73.965 38.2775 73.8711 38.3599 73.8027 38.4736C73.7401 38.5816 73.7031 38.7208 73.6917 38.8914H72.1029C72.1257 38.232 72.3336 37.7432 72.7265 37.4248C73.1194 37.1065 73.723 36.9474 74.5373 36.9474C75.3516 36.9474 75.9467 37.0923 76.3225 37.3822C76.6984 37.6664 76.8863 38.0871 76.8863 38.6441C76.8863 38.9567 76.8066 39.2239 76.6471 39.4456C76.4934 39.6616 76.2713 39.8179 75.9809 39.9145C76.3453 39.9998 76.6215 40.1646 76.8094 40.4091C77.003 40.6478 77.0998 40.9604 77.0998 41.3469C77.0998 41.6994 77.0059 42.012 76.8179 42.2848C76.6357 42.552 76.3567 42.7623 75.9809 42.9158C75.605 43.0636 75.1238 43.1375 74.5373 43.1375Z" fill="white"/>
<path d="M77.8939 43.0266V37.0582H79.4314V40.6393L81.7804 37.0582H83.1898V43.0266H81.6523V39.4456L79.3033 43.0266H77.8939Z" fill="white"/>
<path d="M84.2982 43.0266V37.0582H85.8357V39.3262H88.0565V37.0582H89.594V43.0266H88.0565V40.5881H85.8357V43.0266H84.2982Z" fill="white"/>
<path d="M95.3149 43.1375C94.7683 43.1375 94.2842 43.038 93.8628 42.8391C93.4471 42.6344 93.1226 42.3076 92.8891 41.8585C92.6556 41.4095 92.5389 40.8155 92.5389 40.0765V39.9145C92.5389 39.3916 92.6101 38.9425 92.7524 38.5674C92.8948 38.1922 93.0912 37.8853 93.3418 37.6465C93.598 37.4078 93.8942 37.2316 94.2301 37.1179C94.5661 37.0042 94.9277 36.9474 95.3149 36.9474C95.6623 36.9474 95.9897 36.9872 96.2972 37.0667C96.6047 37.1463 96.8724 37.2714 97.1001 37.4419C97.3336 37.6124 97.5215 37.8341 97.6639 38.1069C97.8062 38.3798 97.8917 38.7123 97.9201 39.1045H96.3228C96.2716 38.7919 96.152 38.5674 95.9641 38.4309C95.7762 38.2945 95.5598 38.2263 95.3149 38.2263C95.0871 38.2263 94.8821 38.2832 94.6999 38.3968C94.5234 38.5048 94.3839 38.6811 94.2814 38.9255C94.1789 39.1699 94.1276 39.4996 94.1276 39.9145V40.0936C94.1276 40.4233 94.1589 40.7018 94.2216 40.9292C94.2842 41.1565 94.3696 41.3384 94.4778 41.4748C94.5917 41.6113 94.7198 41.7107 94.8622 41.7733C95.0046 41.8301 95.1555 41.8585 95.3149 41.8585C95.6053 41.8585 95.836 41.7903 96.0068 41.6539C96.1833 41.5118 96.2887 41.2873 96.3228 40.9803H97.9201C97.8974 41.3782 97.8148 41.7164 97.6724 41.9949C97.5358 42.2678 97.3507 42.4895 97.1172 42.66C96.8894 42.8248 96.6218 42.9471 96.3143 43.0266C96.0068 43.1005 95.6737 43.1375 95.3149 43.1375Z" fill="white"/>
<path d="M98.7313 43.0266V37.0582H103.088V38.2348H100.269V39.4029H102.831V40.5114H100.269V41.85H103.088V43.0266H98.7313Z" fill="white"/>
<path d="M103.984 43.0266V37.0582H105.522V39.42H105.949L107.777 37.0582H109.451L107.145 39.8463L109.536 43.0266H107.743L105.949 40.4943H105.522V43.0266H103.984Z" fill="white"/>
<path d="M112.787 43.1375C112.4 43.1375 112.03 43.0806 111.677 42.9669C111.324 42.8533 111.013 42.6742 110.746 42.4298C110.478 42.1854 110.268 41.8699 110.114 41.4834C109.96 41.0912 109.883 40.6251 109.883 40.0851V39.9145C109.883 39.3916 109.96 38.9425 110.114 38.5674C110.268 38.1922 110.478 37.8853 110.746 37.6465C111.013 37.4078 111.324 37.2316 111.677 37.1179C112.03 37.0042 112.4 36.9474 112.787 36.9474C113.186 36.9474 113.559 37.0042 113.906 37.1179C114.254 37.2316 114.561 37.4078 114.829 37.6465C115.096 37.8853 115.307 38.1922 115.461 38.5674C115.615 38.9425 115.691 39.3916 115.691 39.9145V40.0851C115.691 40.6251 115.615 41.0912 115.461 41.4834C115.307 41.8699 115.096 42.1854 114.829 42.4298C114.561 42.6742 114.254 42.8533 113.906 42.9669C113.559 43.0806 113.186 43.1375 112.787 43.1375ZM112.779 41.8585C113.012 41.8585 113.229 41.8074 113.428 41.7051C113.627 41.5971 113.787 41.418 113.906 41.1679C114.032 40.9121 114.094 40.5512 114.094 40.0851V39.9145C114.094 39.4712 114.032 39.1273 113.906 38.8828C113.787 38.6384 113.627 38.4679 113.428 38.3713C113.229 38.2746 113.012 38.2263 112.779 38.2263C112.557 38.2263 112.346 38.2746 112.147 38.3713C111.947 38.4679 111.785 38.6384 111.66 38.8828C111.535 39.1273 111.472 39.4712 111.472 39.9145V40.0851C111.472 40.5512 111.535 40.9121 111.66 41.1679C111.785 41.418 111.947 41.5971 112.147 41.7051C112.346 41.8074 112.557 41.8585 112.779 41.8585Z" fill="white"/>
<path d="M116.584 43.0266V37.0582H118.122V39.3262H120.343V37.0582H121.88V43.0266H120.343V40.5881H118.122V43.0266H116.584Z" fill="white"/>
<path d="M122.519 44.1351V41.7647H123.202C123.276 41.5772 123.336 41.3583 123.382 41.1082C123.433 40.8524 123.473 40.5796 123.501 40.2897C123.53 39.9998 123.549 39.7042 123.561 39.4029C123.578 39.096 123.587 38.7976 123.587 38.5077V37.0582H127.977V41.7647H128.583V44.1351H127.251V43.0266H123.851V44.1351H122.519ZM124.68 41.7647H126.439V38.3201H125.022V38.6782C125.022 39.3717 124.993 39.9714 124.936 40.4773C124.885 40.9775 124.799 41.4066 124.68 41.7647Z" fill="white"/>
<path d="M128.925 41.2702V40.0083H131.744V41.2702H128.925Z" fill="white"/>
<path d="M131.999 43.0266L133.947 39.9145L132.084 37.0582H133.784L134.954 38.8658L136.142 37.0582H137.807L135.954 39.8975L137.893 43.0266H136.176L134.929 40.9377L133.682 43.0266H131.999Z" fill="white"/>
<path d="M138.531 43.0266V37.0582H142.887V38.2348H140.069V39.4029H142.631V40.5114H140.069V41.85H142.887V43.0266H138.531Z" fill="white"/>
<path d="M143.784 43.0266V37.0582H145.322V39.3262H147.543V37.0582H149.08V43.0266H147.543V40.5881H145.322V43.0266H143.784Z" fill="white"/>
<path d="M149.719 44.1351V41.7647H150.402C150.476 41.5772 150.536 41.3583 150.581 41.1082C150.633 40.8524 150.672 40.5796 150.701 40.2897C150.729 39.9998 150.749 39.7042 150.761 39.4029C150.778 39.096 150.786 38.7976 150.786 38.5077V37.0582H155.177V41.7647H155.783V44.1351H154.451V43.0266H151.051V44.1351H149.719ZM151.88 41.7647H153.639V38.3201H152.221V38.6782C152.221 39.3717 152.193 39.9714 152.136 40.4773C152.085 40.9775 151.999 41.4066 151.88 41.7647Z" fill="white"/>
<path fill-rule="evenodd" clip-rule="evenodd" d="M81.7584 10.7104L74.8511 10.6084H69.5705C67.771 10.6084 66.333 11.6046 66.333 13.1577V18.8995C67.8103 16.7345 69.3034 16.7659 71.9829 16.7659H77.9079L80.6347 16.8522L81.7584 10.6947V10.7104ZM78.3165 12.5773C78.4173 12.5667 78.5191 12.5775 78.6154 12.6087C78.7117 12.64 78.8004 12.6911 78.8757 12.7588C78.9509 12.8265 79.0111 12.9092 79.0523 13.0015C79.0935 13.0939 79.1148 13.1939 79.1148 13.295C79.1148 13.3961 79.0935 13.4961 79.0523 13.5884C79.0111 13.6808 78.9509 13.7635 78.8757 13.8312C78.8004 13.8988 78.7117 13.95 78.6154 13.9812C78.5191 14.0125 78.4173 14.0232 78.3165 14.0127C78.2158 14.0232 78.114 14.0125 78.0177 13.9812C77.9213 13.95 77.8327 13.8988 77.7574 13.8312C77.6822 13.7635 77.622 13.6808 77.5808 13.5884C77.5396 13.4961 77.5183 13.3961 77.5183 13.295C77.5183 13.1939 77.5396 13.0939 77.5808 13.0015C77.622 12.9092 77.6822 12.8265 77.7574 12.7588C77.8327 12.6911 77.9213 12.64 78.0177 12.6087C78.114 12.5775 78.2158 12.5667 78.3165 12.5773ZM74.8354 12.5773C74.9754 12.5895 75.1088 12.6421 75.2193 12.7288C75.3298 12.8155 75.4125 12.9324 75.4575 13.0653C75.5024 13.1982 75.5076 13.3413 75.4724 13.4771C75.4371 13.6129 75.363 13.7355 75.2591 13.8299C75.1552 13.9243 75.0259 13.9864 74.8872 14.0087C74.7484 14.0309 74.6062 14.0123 74.4779 13.9552C74.3496 13.898 74.2407 13.8047 74.1647 13.6868C74.0886 13.5688 74.0486 13.4313 74.0496 13.2911C74.0515 13.1918 74.0736 13.0939 74.1147 13.0035C74.1557 12.9131 74.2149 12.832 74.2884 12.7651C74.362 12.6983 74.4485 12.6472 74.5425 12.6149C74.6366 12.5826 74.7362 12.5698 74.8354 12.5773ZM71.3543 12.5773C71.4943 12.5895 71.6277 12.6421 71.7382 12.7288C71.8486 12.8155 71.9314 12.9324 71.9764 13.0653C72.0213 13.1982 72.0265 13.3413 71.9913 13.4771C71.956 13.6129 71.8819 13.7355 71.778 13.8299C71.6741 13.9243 71.5448 13.9864 71.4061 14.0087C71.2673 14.0309 71.1251 14.0123 70.9968 13.9552C70.8685 13.898 70.7596 13.8047 70.6835 13.6868C70.6075 13.5688 70.5675 13.4313 70.5685 13.2911C70.5715 13.1921 70.5943 13.0948 70.6358 13.0049C70.6772 12.915 70.7364 12.8343 70.8097 12.7677C70.883 12.7011 70.969 12.6499 71.0626 12.6172C71.1562 12.5845 71.2554 12.5709 71.3543 12.5773Z" fill="#FFE600"/>
<path fill-rule="evenodd" clip-rule="evenodd" d="M45.6114 24.28C44.9796 23.7174 44.4481 23.0516 44.0398 22.3112C43.7569 21.8013 43.1676 20.1463 42.9868 19.9109C42.9868 26.5704 48.181 31.6768 55.1668 31.6768C59.3394 31.6768 61.5868 29.9433 64.0464 28.4844L63.4256 27.7L61.2489 28.6099L61.1153 28.4138L62.9541 27.1195C62.8127 26.8607 62.8598 26.6253 62.3883 26.6253C61.7809 26.9617 61.1184 27.1875 60.4317 27.2921L60.3374 27.1823L62.019 26.0135C62.0662 25.8331 62.0976 25.5586 61.7911 25.5586C61.2096 25.5586 60.7146 26.2018 59.6852 26.2253L59.5673 26.092L61.1389 25.0879L61.3982 25.0095L61.0682 24.2251C57.1863 26.6646 50.5934 28.3745 45.6114 24.28Z" fill="#FFE600"/>
<path fill-rule="evenodd" clip-rule="evenodd" d="M56.101 18.8522C56.7289 18.5562 57.2893 18.1348 57.7475 17.614C58.2057 17.0932 58.5519 16.4841 58.7649 15.8244C61.6645 7.62751 43.4731 9.8395 43.4731 18.4521C43.4731 24.037 49.0995 25.9117 53.9951 25.9117C53.0128 25.3077 52.6592 25.4568 51.6377 24.5469C46.1056 18.9071 56.101 14.891 56.101 18.8522Z" fill="#FFE600"/>
<path fill-rule="evenodd" clip-rule="evenodd" d="M58.5138 11.518C61.9949 16.1067 57.0601 20.7895 52.3531 20.5778H51.748L52.0467 21.2523L53.8697 21.3465V21.5269L52.3767 21.8406C52.4474 22.1152 52.4867 22.4446 52.9582 22.4446H54.4669C54.2705 22.9153 53.6811 22.978 52.9582 22.978L53.1311 23.5114H54.1605C54.5136 23.5369 54.8651 23.5814 55.2135 23.6447L55.2527 23.7938L53.579 24.1154C53.7204 24.6409 53.9562 24.7115 54.7655 24.7115C66.2776 24.7115 64.8003 12.8123 58.5138 11.518Z" fill="#FFE600"/>
<path fill-rule="evenodd" clip-rule="evenodd" d="M192.816 10.6941C193.402 10.7015 193.964 10.9315 194.387 11.3373C194.602 11.5383 194.774 11.7813 194.891 12.0511C195.008 12.321 195.069 12.612 195.069 12.9061C195.069 13.2002 195.008 13.4912 194.891 13.761C194.774 14.0309 194.602 14.2738 194.387 14.4749C193.95 14.8852 193.373 15.1137 192.773 15.1137C192.172 15.1137 191.595 14.8852 191.158 14.4749C190.943 14.2738 190.771 14.0309 190.654 13.761C190.537 13.4912 190.476 13.2002 190.476 12.9061C190.476 12.612 190.537 12.321 190.654 12.0511C190.771 11.7813 190.943 11.5383 191.158 11.3373C191.593 10.9202 192.173 10.6894 192.776 10.6941H192.816ZM192.03 11.8001V13.9964H192.486V13.0943H192.666C192.728 13.092 192.788 13.1084 192.839 13.1414C192.892 13.1818 192.933 13.2361 192.957 13.2983L193.248 13.9964H193.767L193.397 13.1414C193.372 13.0864 193.337 13.0361 193.295 12.9924C193.262 12.9503 193.214 12.9223 193.162 12.9139C193.278 12.8911 193.385 12.8337 193.468 12.7492C193.514 12.7045 193.549 12.6506 193.572 12.5911C193.595 12.5316 193.605 12.4678 193.602 12.4041C193.604 12.326 193.591 12.2481 193.563 12.1752C193.535 12.1024 193.492 12.0361 193.437 11.9805C193.265 11.8462 193.048 11.7843 192.831 11.8079L192.03 11.8001ZM192.486 12.1452V12.7492H192.737C192.846 12.7556 192.954 12.719 193.036 12.6472C193.088 12.592 193.119 12.5195 193.122 12.4433C193.124 12.3653 193.096 12.2895 193.044 12.2315C192.956 12.1649 192.847 12.134 192.737 12.1452H192.486ZM194.159 11.5883C193.794 11.2407 193.309 11.0467 192.804 11.0467C192.299 11.0467 191.814 11.2407 191.448 11.5883C191.272 11.7581 191.132 11.9615 191.036 12.1866C190.94 12.4117 190.891 12.6537 190.891 12.8982C190.891 13.1428 190.94 13.3848 191.036 13.6099C191.132 13.8349 191.272 14.0384 191.448 14.2082C191.814 14.5558 192.299 14.7498 192.804 14.7498C193.309 14.7498 193.794 14.5558 194.159 14.2082C194.338 14.0396 194.48 13.8365 194.577 13.6113C194.674 13.386 194.724 13.1434 194.724 12.8982C194.724 12.6531 194.674 12.4105 194.577 12.1852C194.48 11.96 194.338 11.7569 194.159 11.5883Z" fill="#FFE600"/>
<path fill-rule="evenodd" clip-rule="evenodd" d="M147.208 10.6787H152.834C152.897 12.7809 152.96 13.5417 152.874 15.4321C152.874 16.0361 153.353 16.2165 153.958 16.2165C154.652 16.2203 155.345 16.2674 156.033 16.3577V25.488C156.033 25.6292 154.461 25.488 153.243 25.6292C152.858 25.6763 152.834 25.7547 152.834 25.9822V31.3239H147.216C147.216 21.8642 147.216 20.0051 147.216 10.6866L147.208 10.6787ZM153.361 19.7541C153.194 19.7603 153.033 19.8154 152.897 19.9125C152.762 20.0096 152.658 20.1444 152.599 20.3001C152.54 20.4558 152.528 20.6254 152.565 20.7878C152.601 20.9502 152.685 21.0982 152.806 21.2132C152.927 21.3283 153.079 21.4053 153.243 21.4346C153.407 21.4639 153.576 21.4443 153.729 21.3782C153.882 21.312 154.013 21.2023 154.104 21.0628C154.195 20.9232 154.242 20.76 154.241 20.5934C154.235 20.366 154.139 20.1501 153.974 19.9929C153.809 19.8357 153.589 19.7499 153.361 19.7541ZM150.768 19.7541C150.601 19.7603 150.44 19.8154 150.304 19.9125C150.169 20.0096 150.065 20.1444 150.006 20.3001C149.947 20.4558 149.935 20.6254 149.971 20.7878C150.008 20.9502 150.092 21.0982 150.213 21.2132C150.334 21.3283 150.485 21.4053 150.65 21.4346C150.814 21.4639 150.983 21.4443 151.136 21.3782C151.289 21.312 151.419 21.2023 151.51 21.0628C151.601 20.9232 151.649 20.76 151.648 20.5934C151.642 20.366 151.546 20.1501 151.381 19.9929C151.216 19.8357 150.996 19.7499 150.768 19.7541Z" fill="#FFE600"/>
<path fill-rule="evenodd" clip-rule="evenodd" d="M165.211 10.6787H159.585C159.522 12.7809 159.459 13.5417 159.545 15.4321C159.545 16.0361 159.066 16.2165 158.461 16.2165C157.762 16.2208 157.064 16.268 156.371 16.3577V25.488C156.371 25.6292 157.942 25.488 159.176 25.6292C159.561 25.6763 159.592 25.7547 159.585 25.9822V31.3239H165.203V10.6787H165.211ZM161.329 19.7541C161.495 19.7618 161.656 19.8182 161.79 19.9162C161.925 20.0142 162.027 20.1494 162.085 20.3052C162.143 20.461 162.154 20.6303 162.116 20.7922C162.079 20.954 161.994 21.1012 161.873 21.2155C161.752 21.3298 161.6 21.406 161.437 21.4348C161.273 21.4635 161.104 21.4435 160.951 21.3772C160.798 21.3109 160.669 21.2012 160.578 21.0619C160.487 20.9225 160.44 20.7596 160.441 20.5934C160.444 20.4801 160.47 20.3685 160.516 20.265C160.562 20.1615 160.628 20.0681 160.711 19.9901C160.793 19.9122 160.89 19.8512 160.996 19.8107C161.102 19.7702 161.216 19.751 161.329 19.7541ZM158.736 19.7541C158.854 19.7428 158.973 19.7561 159.085 19.7934C159.197 19.8306 159.3 19.8908 159.388 19.9702C159.476 20.0496 159.546 20.1464 159.593 20.2544C159.641 20.3624 159.666 20.4793 159.666 20.5974C159.666 20.7155 159.641 20.8323 159.593 20.9403C159.546 21.0483 159.476 21.1451 159.388 21.2245C159.3 21.3039 159.197 21.3642 159.085 21.4014C158.973 21.4386 158.854 21.4519 158.736 21.4406C158.618 21.4519 158.499 21.4386 158.387 21.4014C158.275 21.3642 158.171 21.3039 158.084 21.2245C157.996 21.1451 157.926 21.0483 157.878 20.9403C157.83 20.8323 157.806 20.7155 157.806 20.5974C157.806 20.4793 157.83 20.3624 157.878 20.2544C157.926 20.1464 157.996 20.0496 158.084 19.9702C158.171 19.8908 158.275 19.8306 158.387 19.7934C158.499 19.7561 158.618 19.7428 158.736 19.7541Z" fill="#FFE600"/>
<path fill-rule="evenodd" clip-rule="evenodd" d="M123.484 31.9986H122.95C122.69 31.6849 121.905 30.7436 121.905 30.9789C122.004 31.3413 122.16 31.6856 122.368 31.9986H121.645L120.529 30.4298C120.573 30.6891 120.597 30.9513 120.6 31.2142C120.667 31.5062 120.808 31.7762 121.009 31.9986H120.27C119.838 31.5907 118.895 30.3828 118.895 30.3828C118.988 30.6578 119.064 30.938 119.123 31.2221C119.187 31.5033 119.304 31.7696 119.469 32.0065H118.628L117.536 30.171C117.536 30.171 117.701 31.1985 117.834 31.9751H117.174C117.056 31.6143 116.93 31.2456 116.797 30.8613C116.663 30.4769 116.514 30.0769 116.341 29.6925C115.891 28.6621 115.365 27.6659 114.769 26.7118C114.309 25.956 113.784 25.242 113.198 24.5783C113.795 23.9351 115.846 21.7231 116.797 20.821C117.811 21.7709 118.725 22.8223 119.524 23.9586C120.412 25.202 121.2 26.5134 121.881 27.8806C122.219 28.5865 122.533 29.2768 122.808 29.9592C123.083 30.6416 123.327 31.3162 123.539 31.9594L123.484 31.9986ZM112.876 24.2959C113.245 23.888 113.842 23.237 114.447 22.7271C115.052 22.2172 115.87 21.2681 116.475 20.5857L116.797 20.2327L117.182 19.7935L117.881 18.9463C118.329 18.3894 118.754 17.8011 119.162 17.205C119.958 16.0347 120.647 14.7957 121.221 13.5026C121.425 13.0634 121.606 12.6241 121.763 12.177C121.92 11.7299 122.046 11.2907 122.164 10.8514H121.378C121.103 11.1887 120.357 12.075 120.357 11.8476C120.45 11.4932 120.601 11.1566 120.804 10.8514H120.074L118.981 12.3731C119.024 12.1269 119.048 11.8778 119.052 11.6279C119.109 11.3371 119.242 11.0665 119.437 10.8436H118.699C118.258 11.275 117.347 12.4123 117.347 12.4123C117.446 12.136 117.525 11.8529 117.583 11.5652C117.638 11.2853 117.747 11.0189 117.905 10.7808H117.064L115.995 12.5849C115.995 12.5849 116.16 11.5573 116.294 10.7808H115.657C115.498 11.4254 115.299 12.0594 115.06 12.679C114.832 13.2595 114.589 13.785 114.345 14.2478C114.117 14.7186 113.854 15.1721 113.559 15.6048L112.915 16.5069C112.593 16.0833 112.31 15.7225 112.074 15.3067C111.839 14.937 111.624 14.5547 111.43 14.1615C111.187 13.6827 110.972 13.1903 110.785 12.6869C110.605 12.2084 110.44 11.675 110.283 11.1181L110.228 10.9534C110.228 10.8906 110.188 10.8357 110.173 10.7808H109.269C109.402 11.5652 109.567 12.5849 109.567 12.5849L108.491 10.7808H107.658C107.812 11.0206 107.921 11.2864 107.98 11.5652C108.039 11.8519 108.115 12.1348 108.208 12.4123C108.208 12.4123 107.304 11.2514 106.856 10.8436H106.118C106.315 11.0663 106.451 11.3367 106.511 11.6279C106.515 11.8775 106.536 12.1264 106.574 12.3731C106.574 12.3731 105.788 11.3142 105.481 10.8514H104.758C104.962 11.1566 105.113 11.4932 105.206 11.8476C105.206 12.075 104.46 11.1887 104.185 10.8514H103.65C104.031 12.0893 104.496 13.3001 105.041 14.4753C106.152 16.7278 107.613 18.7902 109.371 20.5857C107.906 21.9233 106.627 23.4508 105.568 25.1273C104.493 26.805 103.585 28.5836 102.857 30.4377C102.755 30.7044 102.66 30.9711 102.566 31.2221C102.472 31.4731 102.385 31.7555 102.307 32.0065H108.593C108.656 31.8418 108.711 31.6613 108.766 31.4809C108.821 31.3005 108.884 31.1123 108.939 30.924C109.383 29.6917 109.949 28.5067 110.628 27.3864C111.186 26.439 111.825 25.5414 112.538 24.7038L112.742 24.4685L112.813 24.3743L112.884 24.3037L112.876 24.2959Z" fill="#FFE600"/>
<path fill-rule="evenodd" clip-rule="evenodd" d="M66.4275 30.8927H73.9241V25.402V24.3195H66.4275V24.5235V25.402V30.8927ZM67.9048 26.7041H69.2957V28.4297C69.2957 28.6964 69.6336 28.8376 69.94 28.8376H70.3015C70.6158 28.8376 70.9537 28.6964 70.9537 28.4297V26.7041H72.431V29.4965H67.9441V26.7041H67.9048ZM73.9241 23.8097V19.0092C73.9381 18.4185 74.0634 17.8358 74.2934 17.2914H70.5922C69.6553 17.2459 68.7243 17.4632 67.9048 17.9189C67.4569 18.1856 66.4275 19.0955 66.4275 19.7308V23.8254L73.9241 23.8097Z" fill="#FFE600"/>
<path fill-rule="evenodd" clip-rule="evenodd" d="M125.849 24.28C125.218 23.7174 124.686 23.0516 124.278 22.3112C123.987 21.8013 123.406 20.1463 123.225 19.9109C123.225 26.5704 128.419 31.6768 135.405 31.6768C139.577 31.6768 141.817 29.9433 144.277 28.4844L143.664 27.7L141.479 28.6099L141.353 28.4138L143.192 27.1195C143.051 26.8607 143.098 26.6253 142.626 26.6253C142.019 26.9617 141.356 27.1875 140.67 27.2921L140.575 27.1823L142.249 26.0135C142.296 25.8331 142.328 25.5586 142.021 25.5586C141.448 25.5586 140.945 26.2018 139.915 26.2253L139.805 26.092L141.377 25.0879L141.636 25.0095L141.306 24.2251C137.424 26.6646 130.808 28.3745 125.849 24.28Z" fill="#FFE600"/>
<path fill-rule="evenodd" clip-rule="evenodd" d="M136.309 18.8522C136.936 18.555 137.496 18.1332 137.954 17.6126C138.412 17.092 138.759 16.4835 138.973 15.8244C141.872 7.62751 123.673 9.8395 123.673 18.4521C123.673 24.037 129.307 25.9117 134.203 25.9117C133.221 25.3077 132.867 25.4568 131.845 24.5469C126.345 18.9071 136.309 14.891 136.309 18.8522Z" fill="#FFE600"/>
<path fill-rule="evenodd" clip-rule="evenodd" d="M138.745 11.518C142.218 16.1067 137.291 20.7895 132.584 20.5778H131.979L132.278 21.2523L134.101 21.3465V21.5269L132.616 21.8406C132.686 22.1152 132.726 22.4446 133.197 22.4446H134.706C134.51 22.9153 133.92 22.978 133.197 22.978L133.37 23.5114H134.4C134.753 23.5374 135.104 23.5819 135.453 23.6447L135.492 23.7938L133.818 24.1154C133.959 24.6409 134.195 24.7115 135.005 24.7115C146.524 24.7115 145.024 12.8123 138.745 11.518Z" fill="#FFE600"/>
<path fill-rule="evenodd" clip-rule="evenodd" d="M179.473 18.9383C178.842 18.9484 178.233 18.7119 177.775 18.2794C177.367 17.8558 177.642 17.1655 177.642 16.5537C177.642 15.283 177.87 14.1064 177.87 12.82L174.31 12.6396C173.72 15.2359 172.919 18.0833 171.787 22.217H178.451C179.127 20.9934 179.457 20.1149 179.74 19.6207C180.253 20.4587 180.717 21.3256 181.131 22.217H187.7C187.59 22.0758 185.185 13.2436 185.138 12.8043L181.696 12.8906L181.979 17.6832C182.042 18.4206 181.013 18.9697 180.085 18.9697L179.473 18.9383Z" fill="#FFE600"/>
<path fill-rule="evenodd" clip-rule="evenodd" d="M174.318 12.3258C174.695 12.3258 176.597 12.4278 176.982 12.4827C178.09 12.6474 178.459 12.2238 178.31 13.5965C178.164 15.027 178.12 16.466 178.176 17.9028C178.443 18.1812 178.789 18.3726 179.166 18.4519H180.164C180.707 18.4519 181.382 18.1381 181.382 17.7146V17.5341L181.21 13.0004V12.6944C181.21 12.4277 182.781 12.467 183.119 12.4513C183.826 12.4042 184.604 12.3258 185.186 12.3258L184.864 10.906H174.648L174.294 12.3022L174.318 12.3258ZM179.74 11.5414C179.843 11.5564 179.939 11.6007 180.018 11.6689C180.096 11.7371 180.153 11.8263 180.182 11.926C180.211 12.0256 180.211 12.1315 180.181 12.231C180.152 12.3305 180.094 12.4194 180.015 12.4871C179.936 12.5548 179.84 12.5985 179.737 12.6129C179.634 12.6273 179.529 12.6119 179.434 12.5684C179.34 12.525 179.26 12.4553 179.204 12.3678C179.148 12.2803 179.119 12.1786 179.119 12.0748C179.131 11.9221 179.203 11.7804 179.32 11.6805C179.436 11.5806 179.587 11.5306 179.74 11.5414ZM179.74 13.8946C179.843 13.9096 179.939 13.9536 180.017 14.0214C180.095 14.0892 180.152 14.178 180.182 14.2773C180.211 14.3765 180.211 14.4821 180.182 14.5814C180.153 14.6807 180.096 14.7697 180.018 14.8377C179.94 14.9058 179.844 14.9501 179.742 14.9654C179.639 14.9807 179.534 14.9663 179.44 14.924C179.345 14.8817 179.265 14.8133 179.208 14.7267C179.151 14.6402 179.12 14.5392 179.119 14.4358C179.124 14.3595 179.144 14.285 179.178 14.2164C179.212 14.1479 179.259 14.0867 179.317 14.0364C179.375 13.9861 179.442 13.9477 179.514 13.9234C179.587 13.899 179.664 13.8892 179.74 13.8946ZM179.74 16.2477C179.843 16.2628 179.939 16.307 180.018 16.3752C180.096 16.4434 180.153 16.5327 180.182 16.6323C180.211 16.732 180.211 16.8379 180.181 16.9374C180.152 17.0369 180.094 17.1258 180.015 17.1935C179.936 17.2612 179.84 17.3048 179.737 17.3192C179.634 17.3337 179.529 17.3182 179.434 17.2748C179.34 17.2313 179.26 17.1617 179.204 17.0742C179.148 16.9866 179.119 16.8849 179.119 16.7811C179.115 16.6989 179.128 16.6166 179.157 16.5397C179.187 16.4629 179.233 16.3932 179.291 16.3353C179.35 16.2774 179.42 16.2327 179.498 16.2041C179.575 16.1755 179.658 16.1636 179.74 16.1693V16.2477Z" fill="#FFE600"/>
<path fill-rule="evenodd" clip-rule="evenodd" d="M191.143 31.3003H184.558V28.304V27.0254C184.558 26.5391 184.369 26.4842 184.235 26.1704H187.489C188.286 26.1447 189.083 26.2507 189.846 26.4842C190.231 26.6175 191.143 27.0646 191.143 27.3784V31.3003ZM189.846 29.0178H188.62V29.959C188.62 30.1002 188.329 30.1787 188.054 30.1787H187.732C187.457 30.1787 187.159 30.1002 187.159 29.959V29.0178H185.862V30.5159H189.846V29.0178Z" fill="#FFE600"/>
<path fill-rule="evenodd" clip-rule="evenodd" d="M181.885 22.5151L186.09 22.4602H189.28C190.364 22.4602 191.229 23.0014 191.229 23.8486V26.9861H191.119C191.079 26.6332 190.294 26.1625 189.909 26.0292C189.226 25.8709 188.526 25.7998 187.826 25.8174L182.601 25.8723L181.885 22.5151ZM188.258 23.3622C188.156 23.3772 188.06 23.4212 187.981 23.4891C187.903 23.5569 187.846 23.6457 187.817 23.7449C187.788 23.8442 187.787 23.9497 187.816 24.049C187.845 24.1484 187.902 24.2373 187.98 24.3054C188.058 24.3734 188.154 24.4177 188.257 24.433C188.359 24.4483 188.464 24.434 188.559 24.3917C188.653 24.3494 188.734 24.2809 188.79 24.1944C188.847 24.1079 188.878 24.0069 188.879 23.9035C188.874 23.8272 188.854 23.7526 188.82 23.6841C188.786 23.6156 188.739 23.5544 188.681 23.5041C188.624 23.4538 188.557 23.4154 188.484 23.391C188.411 23.3667 188.335 23.3569 188.258 23.3622ZM186.152 23.3622C186.05 23.3772 185.954 23.4212 185.876 23.4891C185.797 23.5569 185.74 23.6457 185.711 23.7449C185.682 23.8442 185.681 23.9497 185.71 24.049C185.739 24.1484 185.796 24.2373 185.874 24.3054C185.952 24.3734 186.048 24.4177 186.151 24.433C186.253 24.4483 186.358 24.434 186.453 24.3917C186.547 24.3494 186.628 24.2809 186.685 24.1944C186.741 24.1079 186.772 24.0069 186.773 23.9035C186.761 23.7502 186.689 23.6077 186.573 23.5065C186.457 23.4053 186.306 23.3536 186.152 23.3622ZM184.046 23.3622C183.944 23.3772 183.848 23.4212 183.77 23.4891C183.691 23.5569 183.634 23.6457 183.605 23.7449C183.576 23.8442 183.576 23.9497 183.604 24.049C183.633 24.1484 183.69 24.2373 183.768 24.3054C183.846 24.3734 183.942 24.4177 184.045 24.433C184.147 24.4483 184.252 24.434 184.347 24.3917C184.441 24.3494 184.522 24.2809 184.579 24.1944C184.635 24.1079 184.666 24.0069 184.667 23.9035C184.662 23.8265 184.642 23.7512 184.608 23.6821C184.573 23.6131 184.525 23.5515 184.467 23.5011C184.408 23.4507 184.34 23.4125 184.267 23.3886C184.193 23.3648 184.116 23.3558 184.039 23.3622H184.046Z" fill="#FFE600"/>
<path fill-rule="evenodd" clip-rule="evenodd" d="M168.644 31.3005H175.284V28.3041V27.0256C175.284 26.5392 175.473 26.4843 175.614 26.1706H172.33C171.532 26.1461 170.736 26.2521 169.972 26.4843C169.579 26.6177 168.66 27.0648 168.66 27.3785V31.3005H168.644ZM169.957 29.0179H171.182V29.9592C171.182 30.1004 171.481 30.1788 171.756 30.1788H172.086C172.361 30.1788 172.66 30.1004 172.66 29.9592V29.0179H173.972V30.5161H169.957V29.0179Z" fill="#FFE600"/>
<path fill-rule="evenodd" clip-rule="evenodd" d="M177.831 22.5151L173.697 22.4602H170.515C169.43 22.4602 168.566 23.0014 168.566 23.8486V26.9861H168.676C168.676 26.6332 169.501 26.1625 169.886 26.0292C170.568 25.8709 171.268 25.7998 171.968 25.8174H175.544L177.186 25.8723L177.831 22.5072V22.5151ZM175.426 23.3622C175.529 23.3772 175.625 23.4212 175.703 23.4891C175.781 23.5569 175.838 23.6457 175.868 23.7449C175.897 23.8442 175.897 23.9497 175.868 24.049C175.839 24.1484 175.782 24.2373 175.704 24.3054C175.626 24.3734 175.53 24.4177 175.428 24.433C175.325 24.4483 175.22 24.434 175.126 24.3917C175.031 24.3494 174.951 24.2809 174.894 24.1944C174.837 24.1079 174.806 24.0069 174.805 23.9035C174.81 23.8272 174.83 23.7526 174.864 23.6841C174.898 23.6156 174.945 23.5544 175.003 23.5041C175.061 23.4538 175.128 23.4154 175.2 23.391C175.273 23.3667 175.35 23.3569 175.426 23.3622ZM173.32 23.3622C173.423 23.3772 173.519 23.4212 173.597 23.4891C173.675 23.5569 173.732 23.6457 173.762 23.7449C173.791 23.8442 173.791 23.9497 173.762 24.049C173.733 24.1484 173.676 24.2373 173.598 24.3054C173.52 24.3734 173.424 24.4177 173.322 24.433C173.219 24.4483 173.114 24.434 173.02 24.3917C172.925 24.3494 172.845 24.2809 172.788 24.1944C172.731 24.1079 172.7 24.0069 172.699 23.9035C172.711 23.7502 172.783 23.6077 172.899 23.5065C173.015 23.4053 173.166 23.3536 173.32 23.3622ZM171.214 23.3622C171.317 23.3772 171.413 23.4212 171.491 23.4891C171.569 23.5569 171.626 23.6457 171.656 23.7449C171.685 23.8442 171.685 23.9497 171.656 24.049C171.627 24.1484 171.57 24.2373 171.492 24.3054C171.414 24.3734 171.318 24.4177 171.216 24.433C171.113 24.4483 171.008 24.434 170.914 24.3917C170.819 24.3494 170.739 24.2809 170.682 24.1944C170.625 24.1079 170.594 24.0069 170.593 23.9035C170.598 23.8272 170.618 23.7526 170.652 23.6841C170.686 23.6156 170.733 23.5544 170.791 23.5041C170.849 23.4538 170.916 23.4154 170.988 23.391C171.061 23.3667 171.138 23.3569 171.214 23.3622Z" fill="#FFE600"/>
<path fill-rule="evenodd" clip-rule="evenodd" d="M179.905 22.6095C180.204 22.6487 180.485 22.7728 180.716 22.9672C180.946 23.1616 181.115 23.418 181.203 23.7059C181.292 23.9937 181.295 24.3008 181.213 24.5905C181.132 24.8802 180.968 25.1403 180.742 25.3398C180.516 25.5393 180.238 25.6697 179.94 25.7155C179.642 25.7613 179.337 25.7206 179.061 25.5981C178.786 25.4757 178.552 25.2767 178.386 25.025C178.221 24.7732 178.132 24.4793 178.129 24.1783C178.142 23.9588 178.198 23.7439 178.295 23.5462C178.391 23.3484 178.526 23.1716 178.691 23.0258C178.856 22.8801 179.048 22.7683 179.256 22.6968C179.465 22.6254 179.685 22.5957 179.905 22.6095Z" fill="#FFE600"/>
<path d="M89.3016 11.7848H92.4449V13.5967H94.6608C94.1658 12.6476 93.6314 11.7142 93.0892 10.8121H87.4393C86.8645 11.7107 86.3398 12.6403 85.8677 13.5967H89.3252L89.3016 11.7848Z" fill="#FFE600"/>
<path d="M99.6981 28.1628C99.5095 27.3078 99.3052 26.4214 99.0773 25.488C98.4826 23.1169 97.7399 20.7853 96.8535 18.5069C96.3427 17.1891 95.7769 15.887 95.1483 14.5849L94.9125 14.0907H85.6007C85.2078 14.917 84.8228 15.8033 84.4456 16.7498C83.4716 19.1619 82.6244 21.623 81.9075 24.1231C81.5381 25.4174 81.1924 26.7038 80.8859 27.9745C80.5794 29.2452 80.3044 30.4767 80.1001 31.6611H86.0172C86.1901 30.6493 86.3865 29.606 86.6223 28.5236C86.858 27.4411 87.1331 26.3822 87.4552 25.2919C87.8324 23.9819 88.241 22.6642 88.7204 21.3699C89.1997 20.0757 89.7026 18.8049 90.292 17.6048C90.3627 17.7695 90.5356 18.1461 90.8106 18.7187C91.0857 19.2913 91.3685 19.9737 91.6671 20.7816C91.84 21.2522 92.005 21.7386 92.1779 22.2406C92.3508 22.7426 92.4922 23.2681 92.6258 23.8094H88.9954C88.8068 24.5232 88.6182 25.2448 88.4375 25.9664C88.2568 26.6881 88.076 27.4176 87.9267 28.1706H93.8045C93.8045 28.3039 94.0638 29.4962 94.0796 29.6296C94.0953 29.7629 94.1267 29.9355 94.166 30.1237C94.2053 30.312 94.2367 30.5316 94.2682 30.6885C94.2996 30.8454 94.3153 30.963 94.331 31.0807V31.1356C94.331 31.2062 94.3703 31.2925 94.3939 31.3709C94.4175 31.4494 94.3939 31.5592 94.4489 31.669H100.382C100.24 30.8924 99.871 29.0256 99.6981 28.1628Z" fill="#FFE600"/>
<path d="M90.7316 12.2321C90.5194 12.2321 90.2915 12.3341 90.2915 12.5145V13.5969H91.4388V12.5145C91.4388 12.3341 91.203 12.2321 90.9909 12.2321H90.7316Z" fill="#FFE600"/>
<path fill-rule="evenodd" clip-rule="evenodd" d="M23.3101 11.361H18.1866C17.3464 14.471 16.2504 17.5065 14.9098 20.4364C14.234 21.9582 13.4797 23.1269 12.7174 24.5231C12.4267 25.0643 10.25 28.0764 10.25 28.2647C11.7075 29.268 13.2214 30.1872 14.7841 31.0179C15.5699 31.0179 20.0961 24.28 20.3947 23.1269L22.6814 30.8532H26.4454L23.0429 21.7777C22.9093 21.3228 22.7993 21.1894 23.1293 20.8678C24.2766 19.7305 25.3453 18.5774 26.4926 17.4322C25.4227 16.6303 24.2353 15.9979 22.9722 15.5575C22.0136 15.2094 21.0205 14.9649 20.0097 14.828C20.2845 14.0475 20.7222 13.3341 21.2939 12.7351C21.8656 12.1361 22.5581 11.665 23.3258 11.3532L23.3101 11.361ZM25.8954 21.6522C26.0314 21.6553 26.1635 21.6984 26.2752 21.7761C26.3868 21.8538 26.473 21.9627 26.5229 22.089C26.5729 22.2154 26.5843 22.3537 26.5559 22.4865C26.5275 22.6194 26.4604 22.7409 26.3631 22.8359C26.2658 22.9308 26.1426 22.995 26.0089 23.0204C25.8752 23.0458 25.737 23.0313 25.6115 22.9786C25.4861 22.9259 25.379 22.8375 25.3037 22.7243C25.2284 22.6112 25.1882 22.4784 25.1882 22.3425C25.1892 22.2508 25.2083 22.1602 25.2444 22.0759C25.2805 21.9916 25.3329 21.9153 25.3985 21.8512C25.4642 21.7871 25.5419 21.7365 25.6271 21.7024C25.7124 21.6682 25.8035 21.6512 25.8954 21.6522ZM26.9169 24.7271C27.053 24.7301 27.1851 24.7732 27.2967 24.8509C27.4084 24.9286 27.4946 25.0375 27.5445 25.1639C27.5944 25.2902 27.6059 25.4285 27.5775 25.5613C27.549 25.6942 27.482 25.8157 27.3847 25.9107C27.2873 26.0057 27.1641 26.0699 27.0304 26.0952C26.8968 26.1206 26.7585 26.1061 26.6331 26.0534C26.5076 26.0007 26.4006 25.9123 26.3252 25.7991C26.2499 25.686 26.2097 25.5532 26.2097 25.4173C26.2138 25.2328 26.2901 25.0573 26.4223 24.9283C26.5545 24.7992 26.732 24.727 26.9169 24.7271ZM27.8127 27.7862C27.9491 27.7893 28.0815 27.8326 28.1933 27.9107C28.3051 27.9887 28.3913 28.098 28.441 28.2248C28.4907 28.3517 28.5017 28.4903 28.4726 28.6234C28.4435 28.7564 28.3757 28.8779 28.2776 28.9726C28.1795 29.0672 28.0556 29.1308 27.9214 29.1553C27.7872 29.1798 27.6487 29.1641 27.5234 29.1102C27.3981 29.0564 27.2916 28.9667 27.2172 28.8525C27.1429 28.7384 27.104 28.6048 27.1055 28.4686C27.1065 28.3773 27.1257 28.2871 27.1619 28.2032C27.1981 28.1193 27.2506 28.0435 27.3164 27.98C27.3822 27.9165 27.4599 27.8667 27.5451 27.8334C27.6303 27.8002 27.7213 27.7841 27.8127 27.7862ZM26.8462 30.861C25.9818 27.7784 24.4102 24.931 23.5458 21.8405C23.4358 21.4483 23.3101 21.2914 23.5851 21.009L26.8383 17.6911C27.9742 16.7752 29.2612 16.0638 30.6416 15.5889C31.605 15.2387 32.6036 14.9941 33.6199 14.8594C33.3419 14.0793 32.9022 13.3666 32.3294 12.7678C31.7567 12.169 31.0637 11.6977 30.2959 11.3845H35.3329C36.1757 14.4948 37.2743 17.5302 38.6176 20.46C39.2549 21.8451 39.9738 23.1914 40.7707 24.4917C41.0693 25.0016 43.2695 28.1392 43.2695 28.2882C42.5654 28.7964 41.8334 29.2652 41.0771 29.6923C40.3165 30.1845 39.5295 30.6349 38.7197 31.0414C37.9339 31.0414 33.5648 24.3035 33.2191 23.1347L30.6102 30.8845H26.8462V30.861Z" fill="#FFE600"/>
<path fill-rule="evenodd" clip-rule="evenodd" d="M26.1391 10.9062C25.9348 10.9062 24.756 10.31 24.3867 10.2316C24.3867 11.5886 24.8425 11.8004 25.1725 12.8201L26.1312 12.1533C26.294 12.2901 26.4999 12.3651 26.7127 12.3651C26.9267 12.3643 27.1332 12.2863 27.2942 12.1455L28.2372 12.8593C28.6143 11.7847 29.023 11.5572 29.023 10.2316C28.6615 10.31 27.4513 10.914 27.2863 10.914H27.2313C27.0768 10.7994 26.8895 10.7375 26.697 10.7375C26.5045 10.7375 26.3171 10.7994 26.1626 10.914L26.1391 10.9062Z" fill="#FFE600"/>
<path fill-rule="evenodd" clip-rule="evenodd" d="M22.8302 11.8868C23.1123 11.7211 23.4065 11.5769 23.7103 11.4554C23.8336 12.6008 24.1778 13.7115 24.724 14.7263C25.0847 15.4402 25.525 16.1112 26.0363 16.7265C24.459 15.5249 22.5855 14.7714 20.6143 14.5459C20.7894 13.9786 21.0754 13.4515 21.4557 12.9951C21.8361 12.5387 22.3032 12.162 22.8302 11.8868Z" fill="#FFE600"/>
<path fill-rule="evenodd" clip-rule="evenodd" d="M30.7908 11.8947C30.5089 11.7265 30.2147 11.5797 29.9107 11.4554C29.7836 12.6 29.4396 13.71 28.8971 14.7263C28.5356 15.444 28.0927 16.1178 27.5769 16.7344C29.1564 15.5314 31.0328 14.7779 33.0068 14.5538C32.8313 13.9866 32.5451 13.4597 32.1648 13.0033C31.7845 12.547 31.3176 12.1702 30.7908 11.8947Z" fill="#FFE600"/>
</svg>
