<svg width="18" height="18" viewBox="0 0 18 18" fill="none" xmlns="http://www.w3.org/2000/svg">
<path fill-rule="evenodd" clip-rule="evenodd" d="M12.6 5.39981C12.7773 5.16343 12.9063 4.89445 12.9796 4.60822C13.0529 4.32199 13.0692 4.02412 13.0274 3.73162C12.9856 3.43911 12.8866 3.1577 12.7361 2.90345C12.5855 2.64921 12.3864 2.4271 12.15 2.24981C11.9136 2.07253 11.6446 1.94354 11.3584 1.87021C11.0722 1.79688 10.7743 1.78064 10.4818 1.82243C10.1893 1.86421 9.90788 1.9632 9.65363 2.11375C9.39938 2.26429 9.17727 2.46343 8.99999 2.69981C8.64195 2.22242 8.10893 1.90682 7.51819 1.82243C6.92745 1.73804 6.32738 1.89177 5.84999 2.24981C5.3726 2.60786 5.05699 3.14088 4.9726 3.73162C4.88821 4.32236 5.04195 4.92242 5.39999 5.39981H2.92499C2.30399 5.39981 1.79999 5.90381 1.79999 6.52481V6.97481C1.79999 7.59581 2.30399 8.09981 2.92499 8.09981H8.32499V5.39981H9.67499V8.09981H15.075C15.696 8.09981 16.2 7.59581 16.2 6.97481V6.52481C16.2 5.90381 15.696 5.39981 15.075 5.39981H12.6ZM11.7 4.04981C11.7 4.28851 11.6052 4.51743 11.4364 4.68621C11.2676 4.85499 11.0387 4.94981 10.8 4.94981H9.89999V4.04981C9.89999 3.81112 9.99481 3.5822 10.1636 3.41342C10.3324 3.24464 10.5613 3.14981 10.8 3.14981C11.0387 3.14981 11.2676 3.24464 11.4364 3.41342C11.6052 3.5822 11.7 3.81112 11.7 4.04981ZM6.29999 4.04981C6.29999 4.28851 6.39481 4.51743 6.56359 4.68621C6.73237 4.85499 6.96129 4.94981 7.19999 4.94981H8.09999V4.04981C8.09999 3.81112 8.00517 3.5822 7.83638 3.41342C7.6676 3.24464 7.43868 3.14981 7.19999 3.14981C6.96129 3.14981 6.73237 3.24464 6.56359 3.41342C6.39481 3.5822 6.29999 3.81112 6.29999 4.04981Z" fill="#0BD20B"/>
<path d="M8.32501 9.4502H2.70001V13.7252C2.70001 14.3816 2.96077 15.0111 3.42492 15.4753C3.88908 15.9394 4.5186 16.2002 5.17501 16.2002H8.32501V9.4502ZM9.67501 16.2002V9.4502H15.3V13.7252C15.3 14.3816 15.0393 15.0111 14.5751 15.4753C14.1109 15.9394 13.4814 16.2002 12.825 16.2002H9.67501Z" fill="#0BD20B"/>
</svg>
