<svg width="120" height="120" viewBox="0 0 120 120" fill="none" xmlns="http://www.w3.org/2000/svg">
<path d="M42.1999 0H39.3999C38.8476 0 38.3999 0.447715 38.3999 0.999999V3.8C38.3999 4.35228 38.8476 4.8 39.3999 4.8H42.1999C42.7522 4.8 43.1999 4.35229 43.1999 3.8V1C43.1999 0.447715 42.7522 0 42.1999 0Z" fill="#383838"/>
<path d="M47 0H44.2C43.6477 0 43.2 0.447715 43.2 0.999999V3.8C43.2 4.35228 43.6477 4.8 44.2 4.8H47C47.5522 4.8 48 4.35229 48 3.8V1C48 0.447715 47.5522 0 47 0Z" fill="#383838"/>
<path d="M51.8 0H49C48.4477 0 48 0.447715 48 0.999999V3.8C48 4.35228 48.4477 4.8 49 4.8H51.8C52.3523 4.8 52.8 4.35229 52.8 3.8V1C52.8 0.447715 52.3523 0 51.8 0Z" fill="#383838"/>
<path d="M71 0H68.2C67.6477 0 67.2 0.447715 67.2 0.999999V3.8C67.2 4.35228 67.6477 4.8 68.2 4.8H71C71.5522 4.8 72 4.35229 72 3.8V1C72 0.447715 71.5522 0 71 0Z" fill="#383838"/>
<path d="M80.6 4.80005H77.8C77.2478 4.80005 76.8 5.24776 76.8 5.80005V8.60005C76.8 9.15233 77.2478 9.60005 77.8 9.60005H80.6C81.1523 9.60005 81.6 9.15233 81.6 8.60005V5.80005C81.6 5.24776 81.1523 4.80005 80.6 4.80005Z" fill="#383838"/>
<path d="M47 9.6001H44.2C43.6477 9.6001 43.2 10.0478 43.2 10.6001V13.4001C43.2 13.9524 43.6477 14.4001 44.2 14.4001H47C47.5522 14.4001 48 13.9524 48 13.4001V10.6001C48 10.0478 47.5522 9.6001 47 9.6001Z" fill="#383838"/>
<path d="M66.1999 9.6001H63.3999C62.8476 9.6001 62.3999 10.0478 62.3999 10.6001V13.4001C62.3999 13.9524 62.8476 14.4001 63.3999 14.4001H66.1999C66.7522 14.4001 67.1999 13.9524 67.1999 13.4001V10.6001C67.1999 10.0478 66.7522 9.6001 66.1999 9.6001Z" fill="#383838"/>
<path d="M42.1999 14.3999H39.3999C38.8476 14.3999 38.3999 14.8476 38.3999 15.3999V18.1999C38.3999 18.7522 38.8476 19.1999 39.3999 19.1999H42.1999C42.7522 19.1999 43.1999 18.7522 43.1999 18.1999V15.3999C43.1999 14.8476 42.7522 14.3999 42.1999 14.3999Z" fill="#383838"/>
<path d="M47 14.3999H44.2C43.6477 14.3999 43.2 14.8476 43.2 15.3999V18.1999C43.2 18.7522 43.6477 19.1999 44.2 19.1999H47C47.5522 19.1999 48 18.7522 48 18.1999V15.3999C48 14.8476 47.5522 14.3999 47 14.3999Z" fill="#383838"/>
<path d="M61.4001 14.3999H58.6001C58.0478 14.3999 57.6001 14.8476 57.6001 15.3999V18.1999C57.6001 18.7522 58.0478 19.1999 58.6001 19.1999H61.4001C61.9524 19.1999 62.4001 18.7522 62.4001 18.1999V15.3999C62.4001 14.8476 61.9524 14.3999 61.4001 14.3999Z" fill="#383838"/>
<path d="M71 14.3999H68.2C67.6477 14.3999 67.2 14.8476 67.2 15.3999V18.1999C67.2 18.7522 67.6477 19.1999 68.2 19.1999H71C71.5522 19.1999 72 18.7522 72 18.1999V15.3999C72 14.8476 71.5522 14.3999 71 14.3999Z" fill="#383838"/>
<path d="M80.6 14.3999H77.8C77.2478 14.3999 76.8 14.8476 76.8 15.3999V18.1999C76.8 18.7522 77.2478 19.1999 77.8 19.1999H80.6C81.1523 19.1999 81.6 18.7522 81.6 18.1999V15.3999C81.6 14.8476 81.1523 14.3999 80.6 14.3999Z" fill="#383838"/>
<path d="M42.1999 19.2H39.3999C38.8476 19.2 38.3999 19.6477 38.3999 20.2V23C38.3999 23.5522 38.8476 24 39.3999 24H42.1999C42.7522 24 43.1999 23.5522 43.1999 23V20.2C43.1999 19.6477 42.7522 19.2 42.1999 19.2Z" fill="#383838"/>
<path d="M56.6 19.2H53.8C53.2478 19.2 52.8 19.6477 52.8 20.2V23C52.8 23.5522 53.2478 24 53.8 24H56.6C57.1523 24 57.6 23.5522 57.6 23V20.2C57.6 19.6477 57.1523 19.2 56.6 19.2Z" fill="#383838"/>
<path d="M61.4001 19.2H58.6001C58.0478 19.2 57.6001 19.6477 57.6001 20.2V23C57.6001 23.5522 58.0478 24 58.6001 24H61.4001C61.9524 24 62.4001 23.5522 62.4001 23V20.2C62.4001 19.6477 61.9524 19.2 61.4001 19.2Z" fill="#383838"/>
<path d="M66.1999 19.2H63.3999C62.8476 19.2 62.3999 19.6477 62.3999 20.2V23C62.3999 23.5522 62.8476 24 63.3999 24H66.1999C66.7522 24 67.1999 23.5522 67.1999 23V20.2C67.1999 19.6477 66.7522 19.2 66.1999 19.2Z" fill="#383838"/>
<path d="M71 19.2H68.2C67.6477 19.2 67.2 19.6477 67.2 20.2V23C67.2 23.5522 67.6477 24 68.2 24H71C71.5522 24 72 23.5522 72 23V20.2C72 19.6477 71.5522 19.2 71 19.2Z" fill="#383838"/>
<path d="M75.8 19.2H73C72.4477 19.2 72 19.6477 72 20.2V23C72 23.5522 72.4477 24 73 24H75.8C76.3523 24 76.8 23.5522 76.8 23V20.2C76.8 19.6477 76.3523 19.2 75.8 19.2Z" fill="#383838"/>
<path d="M42.1999 24H39.3999C38.8476 24 38.3999 24.4477 38.3999 25V27.8C38.3999 28.3523 38.8476 28.8 39.3999 28.8H42.1999C42.7522 28.8 43.1999 28.3523 43.1999 27.8V25C43.1999 24.4477 42.7522 24 42.1999 24Z" fill="#383838"/>
<path d="M51.8 24H49C48.4477 24 48 24.4477 48 25V27.8C48 28.3523 48.4477 28.8 49 28.8H51.8C52.3523 28.8 52.8 28.3523 52.8 27.8V25C52.8 24.4477 52.3523 24 51.8 24Z" fill="#383838"/>
<path d="M56.6 24H53.8C53.2478 24 52.8 24.4477 52.8 25V27.8C52.8 28.3523 53.2478 28.8 53.8 28.8H56.6C57.1523 28.8 57.6 28.3523 57.6 27.8V25C57.6 24.4477 57.1523 24 56.6 24Z" fill="#383838"/>
<path d="M66.1999 24H63.3999C62.8476 24 62.3999 24.4477 62.3999 25V27.8C62.3999 28.3523 62.8476 28.8 63.3999 28.8H66.1999C66.7522 28.8 67.1999 28.3523 67.1999 27.8V25C67.1999 24.4477 66.7522 24 66.1999 24Z" fill="#383838"/>
<path d="M71 24H68.2C67.6477 24 67.2 24.4477 67.2 25V27.8C67.2 28.3523 67.6477 28.8 68.2 28.8H71C71.5522 28.8 72 28.3523 72 27.8V25C72 24.4477 71.5522 24 71 24Z" fill="#383838"/>
<path d="M80.6 24H77.8C77.2478 24 76.8 24.4477 76.8 25V27.8C76.8 28.3523 77.2478 28.8 77.8 28.8H80.6C81.1523 28.8 81.6 28.3523 81.6 27.8V25C81.6 24.4477 81.1523 24 80.6 24Z" fill="#383838"/>
<path d="M42.1999 28.8H39.3999C38.8476 28.8 38.3999 29.2478 38.3999 29.8V32.6C38.3999 33.1523 38.8476 33.6 39.3999 33.6H42.1999C42.7522 33.6 43.1999 33.1523 43.1999 32.6V29.8C43.1999 29.2478 42.7522 28.8 42.1999 28.8Z" fill="#383838"/>
<path d="M51.8 28.8H49C48.4477 28.8 48 29.2478 48 29.8V32.6C48 33.1523 48.4477 33.6 49 33.6H51.8C52.3523 33.6 52.8 33.1523 52.8 32.6V29.8C52.8 29.2478 52.3523 28.8 51.8 28.8Z" fill="#383838"/>
<path d="M61.4001 28.8H58.6001C58.0478 28.8 57.6001 29.2478 57.6001 29.8V32.6C57.6001 33.1523 58.0478 33.6 58.6001 33.6H61.4001C61.9524 33.6 62.4001 33.1523 62.4001 32.6V29.8C62.4001 29.2478 61.9524 28.8 61.4001 28.8Z" fill="#383838"/>
<path d="M71 28.8H68.2C67.6477 28.8 67.2 29.2478 67.2 29.8V32.6C67.2 33.1523 67.6477 33.6 68.2 33.6H71C71.5522 33.6 72 33.1523 72 32.6V29.8C72 29.2478 71.5522 28.8 71 28.8Z" fill="#383838"/>
<path d="M80.6 28.8H77.8C77.2478 28.8 76.8 29.2478 76.8 29.8V32.6C76.8 33.1523 77.2478 33.6 77.8 33.6H80.6C81.1523 33.6 81.6 33.1523 81.6 32.6V29.8C81.6 29.2478 81.1523 28.8 80.6 28.8Z" fill="#383838"/>
<path d="M42.1999 33.6001H39.3999C38.8476 33.6001 38.3999 34.0478 38.3999 34.6001V37.4001C38.3999 37.9524 38.8476 38.4001 39.3999 38.4001H42.1999C42.7522 38.4001 43.1999 37.9524 43.1999 37.4001V34.6001C43.1999 34.0478 42.7522 33.6001 42.1999 33.6001Z" fill="#383838"/>
<path d="M47 33.6001H44.2C43.6477 33.6001 43.2 34.0478 43.2 34.6001V37.4001C43.2 37.9524 43.6477 38.4001 44.2 38.4001H47C47.5522 38.4001 48 37.9524 48 37.4001V34.6001C48 34.0478 47.5522 33.6001 47 33.6001Z" fill="#383838"/>
<path d="M56.6 33.6001H53.8C53.2478 33.6001 52.8 34.0478 52.8 34.6001V37.4001C52.8 37.9524 53.2478 38.4001 53.8 38.4001H56.6C57.1523 38.4001 57.6 37.9524 57.6 37.4001V34.6001C57.6 34.0478 57.1523 33.6001 56.6 33.6001Z" fill="#383838"/>
<path d="M71 33.6001H68.2C67.6477 33.6001 67.2 34.0478 67.2 34.6001V37.4001C67.2 37.9524 67.6477 38.4001 68.2 38.4001H71C71.5522 38.4001 72 37.9524 72 37.4001V34.6001C72 34.0478 71.5522 33.6001 71 33.6001Z" fill="#383838"/>
<path d="M75.8 33.6001H73C72.4477 33.6001 72 34.0478 72 34.6001V37.4001C72 37.9524 72.4477 38.4001 73 38.4001H75.8C76.3523 38.4001 76.8 37.9524 76.8 37.4001V34.6001C76.8 34.0478 76.3523 33.6001 75.8 33.6001Z" fill="#383838"/>
<path d="M3.8 38.3999H1C0.447715 38.3999 0 38.8476 0 39.3999V42.1999C0 42.7522 0.447715 43.1999 0.999999 43.1999H3.8C4.35228 43.1999 4.8 42.7522 4.8 42.1999V39.3999C4.8 38.8476 4.35229 38.3999 3.8 38.3999Z" fill="#383838"/>
<path d="M23 38.3999H20.2C19.6477 38.3999 19.2 38.8476 19.2 39.3999V42.1999C19.2 42.7522 19.6477 43.1999 20.2 43.1999H23C23.5522 43.1999 24 42.7522 24 42.1999V39.3999C24 38.8476 23.5522 38.3999 23 38.3999Z" fill="#383838"/>
<path d="M32.6 38.3999H29.8C29.2478 38.3999 28.8 38.8476 28.8 39.3999V42.1999C28.8 42.7522 29.2478 43.1999 29.8 43.1999H32.6C33.1523 43.1999 33.6 42.7522 33.6 42.1999V39.3999C33.6 38.8476 33.1523 38.3999 32.6 38.3999Z" fill="#383838"/>
<path d="M37.4001 38.3999H34.6001C34.0478 38.3999 33.6001 38.8476 33.6001 39.3999V42.1999C33.6001 42.7522 34.0478 43.1999 34.6001 43.1999H37.4001C37.9524 43.1999 38.4001 42.7522 38.4001 42.1999V39.3999C38.4001 38.8476 37.9524 38.3999 37.4001 38.3999Z" fill="#383838"/>
<path d="M42.1999 38.3999H39.3999C38.8476 38.3999 38.3999 38.8476 38.3999 39.3999V42.1999C38.3999 42.7522 38.8476 43.1999 39.3999 43.1999H42.1999C42.7522 43.1999 43.1999 42.7522 43.1999 42.1999V39.3999C43.1999 38.8476 42.7522 38.3999 42.1999 38.3999Z" fill="#383838"/>
<path d="M51.8 38.3999H49C48.4477 38.3999 48 38.8476 48 39.3999V42.1999C48 42.7522 48.4477 43.1999 49 43.1999H51.8C52.3523 43.1999 52.8 42.7522 52.8 42.1999V39.3999C52.8 38.8476 52.3523 38.3999 51.8 38.3999Z" fill="#383838"/>
<path d="M56.6 38.3999H53.8C53.2478 38.3999 52.8 38.8476 52.8 39.3999V42.1999C52.8 42.7522 53.2478 43.1999 53.8 43.1999H56.6C57.1523 43.1999 57.6 42.7522 57.6 42.1999V39.3999C57.6 38.8476 57.1523 38.3999 56.6 38.3999Z" fill="#383838"/>
<path d="M66.1999 38.3999H63.3999C62.8476 38.3999 62.3999 38.8476 62.3999 39.3999V42.1999C62.3999 42.7522 62.8476 43.1999 63.3999 43.1999H66.1999C66.7522 43.1999 67.1999 42.7522 67.1999 42.1999V39.3999C67.1999 38.8476 66.7522 38.3999 66.1999 38.3999Z" fill="#383838"/>
<path d="M71 38.3999H68.2C67.6477 38.3999 67.2 38.8476 67.2 39.3999V42.1999C67.2 42.7522 67.6477 43.1999 68.2 43.1999H71C71.5522 43.1999 72 42.7522 72 42.1999V39.3999C72 38.8476 71.5522 38.3999 71 38.3999Z" fill="#383838"/>
<path d="M80.6 38.3999H77.8C77.2478 38.3999 76.8 38.8476 76.8 39.3999V42.1999C76.8 42.7522 77.2478 43.1999 77.8 43.1999H80.6C81.1523 43.1999 81.6 42.7522 81.6 42.1999V39.3999C81.6 38.8476 81.1523 38.3999 80.6 38.3999Z" fill="#383838"/>
<path d="M85.4001 38.3999H82.6001C82.0478 38.3999 81.6001 38.8476 81.6001 39.3999V42.1999C81.6001 42.7522 82.0478 43.1999 82.6001 43.1999H85.4001C85.9524 43.1999 86.4001 42.7522 86.4001 42.1999V39.3999C86.4001 38.8476 85.9524 38.3999 85.4001 38.3999Z" fill="#383838"/>
<path d="M90.1999 38.3999H87.3999C86.8476 38.3999 86.3999 38.8476 86.3999 39.3999V42.1999C86.3999 42.7522 86.8476 43.1999 87.3999 43.1999H90.1999C90.7522 43.1999 91.1999 42.7522 91.1999 42.1999V39.3999C91.1999 38.8476 90.7522 38.3999 90.1999 38.3999Z" fill="#383838"/>
<path d="M95 38.3999H92.2C91.6477 38.3999 91.2 38.8476 91.2 39.3999V42.1999C91.2 42.7522 91.6477 43.1999 92.2 43.1999H95C95.5522 43.1999 96 42.7522 96 42.1999V39.3999C96 38.8476 95.5522 38.3999 95 38.3999Z" fill="#383838"/>
<path d="M99.8 38.3999H97C96.4477 38.3999 96 38.8476 96 39.3999V42.1999C96 42.7522 96.4477 43.1999 97 43.1999H99.8C100.352 43.1999 100.8 42.7522 100.8 42.1999V39.3999C100.8 38.8476 100.352 38.3999 99.8 38.3999Z" fill="#383838"/>
<path d="M104.6 38.3999H101.8C101.248 38.3999 100.8 38.8476 100.8 39.3999V42.1999C100.8 42.7522 101.248 43.1999 101.8 43.1999H104.6C105.152 43.1999 105.6 42.7522 105.6 42.1999V39.3999C105.6 38.8476 105.152 38.3999 104.6 38.3999Z" fill="#383838"/>
<path d="M119 38.3999H116.2C115.648 38.3999 115.2 38.8476 115.2 39.3999V42.1999C115.2 42.7522 115.648 43.1999 116.2 43.1999H119C119.552 43.1999 120 42.7522 120 42.1999V39.3999C120 38.8476 119.552 38.3999 119 38.3999Z" fill="#383838"/>
<path d="M3.8 43.2H1C0.447715 43.2 0 43.6477 0 44.2V47C0 47.5522 0.447715 48 0.999999 48H3.8C4.35228 48 4.8 47.5522 4.8 47V44.2C4.8 43.6477 4.35229 43.2 3.8 43.2Z" fill="#383838"/>
<path d="M18.1999 43.2H15.3999C14.8476 43.2 14.3999 43.6477 14.3999 44.2V47C14.3999 47.5522 14.8476 48 15.3999 48H18.1999C18.7522 48 19.1999 47.5522 19.1999 47V44.2C19.1999 43.6477 18.7522 43.2 18.1999 43.2Z" fill="#383838"/>
<path d="M27.8 43.2H25C24.4477 43.2 24 43.6477 24 44.2V47C24 47.5522 24.4477 48 25 48H27.8C28.3523 48 28.8 47.5522 28.8 47V44.2C28.8 43.6477 28.3523 43.2 27.8 43.2Z" fill="#383838"/>
<path d="M51.8 43.2H49C48.4477 43.2 48 43.6477 48 44.2V47C48 47.5522 48.4477 48 49 48H51.8C52.3523 48 52.8 47.5522 52.8 47V44.2C52.8 43.6477 52.3523 43.2 51.8 43.2Z" fill="#383838"/>
<path d="M61.4001 43.2H58.6001C58.0478 43.2 57.6001 43.6477 57.6001 44.2V47C57.6001 47.5522 58.0478 48 58.6001 48H61.4001C61.9524 48 62.4001 47.5522 62.4001 47V44.2C62.4001 43.6477 61.9524 43.2 61.4001 43.2Z" fill="#383838"/>
<path d="M75.8 43.2H73C72.4477 43.2 72 43.6477 72 44.2V47C72 47.5522 72.4477 48 73 48H75.8C76.3523 48 76.8 47.5522 76.8 47V44.2C76.8 43.6477 76.3523 43.2 75.8 43.2Z" fill="#383838"/>
<path d="M80.6 43.2H77.8C77.2478 43.2 76.8 43.6477 76.8 44.2V47C76.8 47.5522 77.2478 48 77.8 48H80.6C81.1523 48 81.6 47.5522 81.6 47V44.2C81.6 43.6477 81.1523 43.2 80.6 43.2Z" fill="#383838"/>
<path d="M99.8 43.2H97C96.4477 43.2 96 43.6477 96 44.2V47C96 47.5522 96.4477 48 97 48H99.8C100.352 48 100.8 47.5522 100.8 47V44.2C100.8 43.6477 100.352 43.2 99.8 43.2Z" fill="#383838"/>
<path d="M104.6 43.2H101.8C101.248 43.2 100.8 43.6477 100.8 44.2V47C100.8 47.5522 101.248 48 101.8 48H104.6C105.152 48 105.6 47.5522 105.6 47V44.2C105.6 43.6477 105.152 43.2 104.6 43.2Z" fill="#383838"/>
<path d="M114.2 43.2H111.4C110.848 43.2 110.4 43.6477 110.4 44.2V47C110.4 47.5522 110.848 48 111.4 48H114.2C114.752 48 115.2 47.5522 115.2 47V44.2C115.2 43.6477 114.752 43.2 114.2 43.2Z" fill="#383838"/>
<path d="M3.8 48H1C0.447715 48 0 48.4477 0 49V51.8C0 52.3523 0.447715 52.8 0.999999 52.8H3.8C4.35228 52.8 4.8 52.3523 4.8 51.8V49C4.8 48.4477 4.35229 48 3.8 48Z" fill="#383838"/>
<path d="M8.60005 48H5.80005C5.24776 48 4.80005 48.4477 4.80005 49V51.8C4.80005 52.3523 5.24776 52.8 5.80005 52.8H8.60005C9.15233 52.8 9.60005 52.3523 9.60005 51.8V49C9.60005 48.4477 9.15233 48 8.60005 48Z" fill="#383838"/>
<path d="M13.4001 48H10.6001C10.0478 48 9.6001 48.4477 9.6001 49V51.8C9.6001 52.3523 10.0478 52.8 10.6001 52.8H13.4001C13.9524 52.8 14.4001 52.3523 14.4001 51.8V49C14.4001 48.4477 13.9524 48 13.4001 48Z" fill="#383838"/>
<path d="M23 48H20.2C19.6477 48 19.2 48.4477 19.2 49V51.8C19.2 52.3523 19.6477 52.8 20.2 52.8H23C23.5522 52.8 24 52.3523 24 51.8V49C24 48.4477 23.5522 48 23 48Z" fill="#383838"/>
<path d="M27.8 48H25C24.4477 48 24 48.4477 24 49V51.8C24 52.3523 24.4477 52.8 25 52.8H27.8C28.3523 52.8 28.8 52.3523 28.8 51.8V49C28.8 48.4477 28.3523 48 27.8 48Z" fill="#383838"/>
<path d="M32.6 48H29.8C29.2478 48 28.8 48.4477 28.8 49V51.8C28.8 52.3523 29.2478 52.8 29.8 52.8H32.6C33.1523 52.8 33.6 52.3523 33.6 51.8V49C33.6 48.4477 33.1523 48 32.6 48Z" fill="#383838"/>
<path d="M51.8 48H49C48.4477 48 48 48.4477 48 49V51.8C48 52.3523 48.4477 52.8 49 52.8H51.8C52.3523 52.8 52.8 52.3523 52.8 51.8V49C52.8 48.4477 52.3523 48 51.8 48Z" fill="#383838"/>
<path d="M61.4001 48H58.6001C58.0478 48 57.6001 48.4477 57.6001 49V51.8C57.6001 52.3523 58.0478 52.8 58.6001 52.8H61.4001C61.9524 52.8 62.4001 52.3523 62.4001 51.8V49C62.4001 48.4477 61.9524 48 61.4001 48Z" fill="#383838"/>
<path d="M66.1999 48H63.3999C62.8476 48 62.3999 48.4477 62.3999 49V51.8C62.3999 52.3523 62.8476 52.8 63.3999 52.8H66.1999C66.7522 52.8 67.1999 52.3523 67.1999 51.8V49C67.1999 48.4477 66.7522 48 66.1999 48Z" fill="#383838"/>
<path d="M71 48H68.2C67.6477 48 67.2 48.4477 67.2 49V51.8C67.2 52.3523 67.6477 52.8 68.2 52.8H71C71.5522 52.8 72 52.3523 72 51.8V49C72 48.4477 71.5522 48 71 48Z" fill="#383838"/>
<path d="M75.8 48H73C72.4477 48 72 48.4477 72 49V51.8C72 52.3523 72.4477 52.8 73 52.8H75.8C76.3523 52.8 76.8 52.3523 76.8 51.8V49C76.8 48.4477 76.3523 48 75.8 48Z" fill="#383838"/>
<path d="M80.6 48H77.8C77.2478 48 76.8 48.4477 76.8 49V51.8C76.8 52.3523 77.2478 52.8 77.8 52.8H80.6C81.1523 52.8 81.6 52.3523 81.6 51.8V49C81.6 48.4477 81.1523 48 80.6 48Z" fill="#383838"/>
<path d="M85.4001 48H82.6001C82.0478 48 81.6001 48.4477 81.6001 49V51.8C81.6001 52.3523 82.0478 52.8 82.6001 52.8H85.4001C85.9524 52.8 86.4001 52.3523 86.4001 51.8V49C86.4001 48.4477 85.9524 48 85.4001 48Z" fill="#383838"/>
<path d="M90.1999 48H87.3999C86.8476 48 86.3999 48.4477 86.3999 49V51.8C86.3999 52.3523 86.8476 52.8 87.3999 52.8H90.1999C90.7522 52.8 91.1999 52.3523 91.1999 51.8V49C91.1999 48.4477 90.7522 48 90.1999 48Z" fill="#383838"/>
<path d="M95 48H92.2C91.6477 48 91.2 48.4477 91.2 49V51.8C91.2 52.3523 91.6477 52.8 92.2 52.8H95C95.5522 52.8 96 52.3523 96 51.8V49C96 48.4477 95.5522 48 95 48Z" fill="#383838"/>
<path d="M104.6 48H101.8C101.248 48 100.8 48.4477 100.8 49V51.8C100.8 52.3523 101.248 52.8 101.8 52.8H104.6C105.152 52.8 105.6 52.3523 105.6 51.8V49C105.6 48.4477 105.152 48 104.6 48Z" fill="#383838"/>
<path d="M109.4 48H106.6C106.048 48 105.6 48.4477 105.6 49V51.8C105.6 52.3523 106.048 52.8 106.6 52.8H109.4C109.952 52.8 110.4 52.3523 110.4 51.8V49C110.4 48.4477 109.952 48 109.4 48Z" fill="#383838"/>
<path d="M13.4001 52.8H10.6001C10.0478 52.8 9.6001 53.2478 9.6001 53.8V56.6C9.6001 57.1523 10.0478 57.6 10.6001 57.6H13.4001C13.9524 57.6 14.4001 57.1523 14.4001 56.6V53.8C14.4001 53.2478 13.9524 52.8 13.4001 52.8Z" fill="#383838"/>
<path d="M42.1999 52.8H39.3999C38.8476 52.8 38.3999 53.2478 38.3999 53.8V56.6C38.3999 57.1523 38.8476 57.6 39.3999 57.6H42.1999C42.7522 57.6 43.1999 57.1523 43.1999 56.6V53.8C43.1999 53.2478 42.7522 52.8 42.1999 52.8Z" fill="#383838"/>
<path d="M51.8 52.8H49C48.4477 52.8 48 53.2478 48 53.8V56.6C48 57.1523 48.4477 57.6 49 57.6H51.8C52.3523 57.6 52.8 57.1523 52.8 56.6V53.8C52.8 53.2478 52.3523 52.8 51.8 52.8Z" fill="#383838"/>
<path d="M61.4001 52.8H58.6001C58.0478 52.8 57.6001 53.2478 57.6001 53.8V56.6C57.6001 57.1523 58.0478 57.6 58.6001 57.6H61.4001C61.9524 57.6 62.4001 57.1523 62.4001 56.6V53.8C62.4001 53.2478 61.9524 52.8 61.4001 52.8Z" fill="#383838"/>
<path d="M66.1999 52.8H63.3999C62.8476 52.8 62.3999 53.2478 62.3999 53.8V56.6C62.3999 57.1523 62.8476 57.6 63.3999 57.6H66.1999C66.7522 57.6 67.1999 57.1523 67.1999 56.6V53.8C67.1999 53.2478 66.7522 52.8 66.1999 52.8Z" fill="#383838"/>
<path d="M80.6 52.8H77.8C77.2478 52.8 76.8 53.2478 76.8 53.8V56.6C76.8 57.1523 77.2478 57.6 77.8 57.6H80.6C81.1523 57.6 81.6 57.1523 81.6 56.6V53.8C81.6 53.2478 81.1523 52.8 80.6 52.8Z" fill="#383838"/>
<path d="M85.4001 52.8H82.6001C82.0478 52.8 81.6001 53.2478 81.6001 53.8V56.6C81.6001 57.1523 82.0478 57.6 82.6001 57.6H85.4001C85.9524 57.6 86.4001 57.1523 86.4001 56.6V53.8C86.4001 53.2478 85.9524 52.8 85.4001 52.8Z" fill="#383838"/>
<path d="M95 52.8H92.2C91.6477 52.8 91.2 53.2478 91.2 53.8V56.6C91.2 57.1523 91.6477 57.6 92.2 57.6H95C95.5522 57.6 96 57.1523 96 56.6V53.8C96 53.2478 95.5522 52.8 95 52.8Z" fill="#383838"/>
<path d="M99.8 52.8H97C96.4477 52.8 96 53.2478 96 53.8V56.6C96 57.1523 96.4477 57.6 97 57.6H99.8C100.352 57.6 100.8 57.1523 100.8 56.6V53.8C100.8 53.2478 100.352 52.8 99.8 52.8Z" fill="#383838"/>
<path d="M109.4 52.8H106.6C106.048 52.8 105.6 53.2478 105.6 53.8V56.6C105.6 57.1523 106.048 57.6 106.6 57.6H109.4C109.952 57.6 110.4 57.1523 110.4 56.6V53.8C110.4 53.2478 109.952 52.8 109.4 52.8Z" fill="#383838"/>
<path d="M114.2 52.8H111.4C110.848 52.8 110.4 53.2478 110.4 53.8V56.6C110.4 57.1523 110.848 57.6 111.4 57.6H114.2C114.752 57.6 115.2 57.1523 115.2 56.6V53.8C115.2 53.2478 114.752 52.8 114.2 52.8Z" fill="#383838"/>
<path d="M3.8 57.6001H1C0.447715 57.6001 0 58.0478 0 58.6001V61.4001C0 61.9524 0.447715 62.4001 0.999999 62.4001H3.8C4.35228 62.4001 4.8 61.9524 4.8 61.4001V58.6001C4.8 58.0478 4.35229 57.6001 3.8 57.6001Z" fill="#383838"/>
<path d="M8.60005 57.6001H5.80005C5.24776 57.6001 4.80005 58.0478 4.80005 58.6001V61.4001C4.80005 61.9524 5.24776 62.4001 5.80005 62.4001H8.60005C9.15233 62.4001 9.60005 61.9524 9.60005 61.4001V58.6001C9.60005 58.0478 9.15233 57.6001 8.60005 57.6001Z" fill="#383838"/>
<path d="M18.1999 57.6001H15.3999C14.8476 57.6001 14.3999 58.0478 14.3999 58.6001V61.4001C14.3999 61.9524 14.8476 62.4001 15.3999 62.4001H18.1999C18.7522 62.4001 19.1999 61.9524 19.1999 61.4001V58.6001C19.1999 58.0478 18.7522 57.6001 18.1999 57.6001Z" fill="#383838"/>
<path d="M27.8 57.6001H25C24.4477 57.6001 24 58.0478 24 58.6001V61.4001C24 61.9524 24.4477 62.4001 25 62.4001H27.8C28.3523 62.4001 28.8 61.9524 28.8 61.4001V58.6001C28.8 58.0478 28.3523 57.6001 27.8 57.6001Z" fill="#383838"/>
<path d="M32.6 57.6001H29.8C29.2478 57.6001 28.8 58.0478 28.8 58.6001V61.4001C28.8 61.9524 29.2478 62.4001 29.8 62.4001H32.6C33.1523 62.4001 33.6 61.9524 33.6 61.4001V58.6001C33.6 58.0478 33.1523 57.6001 32.6 57.6001Z" fill="#383838"/>
<path d="M42.1999 57.6001H39.3999C38.8476 57.6001 38.3999 58.0478 38.3999 58.6001V61.4001C38.3999 61.9524 38.8476 62.4001 39.3999 62.4001H42.1999C42.7522 62.4001 43.1999 61.9524 43.1999 61.4001V58.6001C43.1999 58.0478 42.7522 57.6001 42.1999 57.6001Z" fill="#383838"/>
<path d="M47 57.6001H44.2C43.6477 57.6001 43.2 58.0478 43.2 58.6001V61.4001C43.2 61.9524 43.6477 62.4001 44.2 62.4001H47C47.5522 62.4001 48 61.9524 48 61.4001V58.6001C48 58.0478 47.5522 57.6001 47 57.6001Z" fill="#383838"/>
<path d="M61.4001 57.6001H58.6001C58.0478 57.6001 57.6001 58.0478 57.6001 58.6001V61.4001C57.6001 61.9524 58.0478 62.4001 58.6001 62.4001H61.4001C61.9524 62.4001 62.4001 61.9524 62.4001 61.4001V58.6001C62.4001 58.0478 61.9524 57.6001 61.4001 57.6001Z" fill="#383838"/>
<path d="M66.1999 57.6001H63.3999C62.8476 57.6001 62.3999 58.0478 62.3999 58.6001V61.4001C62.3999 61.9524 62.8476 62.4001 63.3999 62.4001H66.1999C66.7522 62.4001 67.1999 61.9524 67.1999 61.4001V58.6001C67.1999 58.0478 66.7522 57.6001 66.1999 57.6001Z" fill="#383838"/>
<path d="M80.6 57.6001H77.8C77.2478 57.6001 76.8 58.0478 76.8 58.6001V61.4001C76.8 61.9524 77.2478 62.4001 77.8 62.4001H80.6C81.1523 62.4001 81.6 61.9524 81.6 61.4001V58.6001C81.6 58.0478 81.1523 57.6001 80.6 57.6001Z" fill="#383838"/>
<path d="M85.4001 57.6001H82.6001C82.0478 57.6001 81.6001 58.0478 81.6001 58.6001V61.4001C81.6001 61.9524 82.0478 62.4001 82.6001 62.4001H85.4001C85.9524 62.4001 86.4001 61.9524 86.4001 61.4001V58.6001C86.4001 58.0478 85.9524 57.6001 85.4001 57.6001Z" fill="#383838"/>
<path d="M90.1999 57.6001H87.3999C86.8476 57.6001 86.3999 58.0478 86.3999 58.6001V61.4001C86.3999 61.9524 86.8476 62.4001 87.3999 62.4001H90.1999C90.7522 62.4001 91.1999 61.9524 91.1999 61.4001V58.6001C91.1999 58.0478 90.7522 57.6001 90.1999 57.6001Z" fill="#383838"/>
<path d="M95 57.6001H92.2C91.6477 57.6001 91.2 58.0478 91.2 58.6001V61.4001C91.2 61.9524 91.6477 62.4001 92.2 62.4001H95C95.5522 62.4001 96 61.9524 96 61.4001V58.6001C96 58.0478 95.5522 57.6001 95 57.6001Z" fill="#383838"/>
<path d="M104.6 57.6001H101.8C101.248 57.6001 100.8 58.0478 100.8 58.6001V61.4001C100.8 61.9524 101.248 62.4001 101.8 62.4001H104.6C105.152 62.4001 105.6 61.9524 105.6 61.4001V58.6001C105.6 58.0478 105.152 57.6001 104.6 57.6001Z" fill="#383838"/>
<path d="M109.4 57.6001H106.6C106.048 57.6001 105.6 58.0478 105.6 58.6001V61.4001C105.6 61.9524 106.048 62.4001 106.6 62.4001H109.4C109.952 62.4001 110.4 61.9524 110.4 61.4001V58.6001C110.4 58.0478 109.952 57.6001 109.4 57.6001Z" fill="#383838"/>
<path d="M114.2 57.6001H111.4C110.848 57.6001 110.4 58.0478 110.4 58.6001V61.4001C110.4 61.9524 110.848 62.4001 111.4 62.4001H114.2C114.752 62.4001 115.2 61.9524 115.2 61.4001V58.6001C115.2 58.0478 114.752 57.6001 114.2 57.6001Z" fill="#383838"/>
<path d="M119 57.6001H116.2C115.648 57.6001 115.2 58.0478 115.2 58.6001V61.4001C115.2 61.9524 115.648 62.4001 116.2 62.4001H119C119.552 62.4001 120 61.9524 120 61.4001V58.6001C120 58.0478 119.552 57.6001 119 57.6001Z" fill="#383838"/>
<path d="M3.8 62.3999H1C0.447715 62.3999 0 62.8476 0 63.3999V66.1999C0 66.7522 0.447715 67.1999 0.999999 67.1999H3.8C4.35228 67.1999 4.8 66.7522 4.8 66.1999V63.3999C4.8 62.8476 4.35229 62.3999 3.8 62.3999Z" fill="#383838"/>
<path d="M8.60005 62.3999H5.80005C5.24776 62.3999 4.80005 62.8476 4.80005 63.3999V66.1999C4.80005 66.7522 5.24776 67.1999 5.80005 67.1999H8.60005C9.15233 67.1999 9.60005 66.7522 9.60005 66.1999V63.3999C9.60005 62.8476 9.15233 62.3999 8.60005 62.3999Z" fill="#383838"/>
<path d="M23 62.3999H20.2C19.6477 62.3999 19.2 62.8476 19.2 63.3999V66.1999C19.2 66.7522 19.6477 67.1999 20.2 67.1999H23C23.5522 67.1999 24 66.7522 24 66.1999V63.3999C24 62.8476 23.5522 62.3999 23 62.3999Z" fill="#383838"/>
<path d="M37.4001 62.3999H34.6001C34.0478 62.3999 33.6001 62.8476 33.6001 63.3999V66.1999C33.6001 66.7522 34.0478 67.1999 34.6001 67.1999H37.4001C37.9524 67.1999 38.4001 66.7522 38.4001 66.1999V63.3999C38.4001 62.8476 37.9524 62.3999 37.4001 62.3999Z" fill="#383838"/>
<path d="M42.1999 62.3999H39.3999C38.8476 62.3999 38.3999 62.8476 38.3999 63.3999V66.1999C38.3999 66.7522 38.8476 67.1999 39.3999 67.1999H42.1999C42.7522 67.1999 43.1999 66.7522 43.1999 66.1999V63.3999C43.1999 62.8476 42.7522 62.3999 42.1999 62.3999Z" fill="#383838"/>
<path d="M51.8 62.3999H49C48.4477 62.3999 48 62.8476 48 63.3999V66.1999C48 66.7522 48.4477 67.1999 49 67.1999H51.8C52.3523 67.1999 52.8 66.7522 52.8 66.1999V63.3999C52.8 62.8476 52.3523 62.3999 51.8 62.3999Z" fill="#383838"/>
<path d="M66.1999 62.3999H63.3999C62.8476 62.3999 62.3999 62.8476 62.3999 63.3999V66.1999C62.3999 66.7522 62.8476 67.1999 63.3999 67.1999H66.1999C66.7522 67.1999 67.1999 66.7522 67.1999 66.1999V63.3999C67.1999 62.8476 66.7522 62.3999 66.1999 62.3999Z" fill="#383838"/>
<path d="M71 62.3999H68.2C67.6477 62.3999 67.2 62.8476 67.2 63.3999V66.1999C67.2 66.7522 67.6477 67.1999 68.2 67.1999H71C71.5522 67.1999 72 66.7522 72 66.1999V63.3999C72 62.8476 71.5522 62.3999 71 62.3999Z" fill="#383838"/>
<path d="M75.8 62.3999H73C72.4477 62.3999 72 62.8476 72 63.3999V66.1999C72 66.7522 72.4477 67.1999 73 67.1999H75.8C76.3523 67.1999 76.8 66.7522 76.8 66.1999V63.3999C76.8 62.8476 76.3523 62.3999 75.8 62.3999Z" fill="#383838"/>
<path d="M80.6 62.3999H77.8C77.2478 62.3999 76.8 62.8476 76.8 63.3999V66.1999C76.8 66.7522 77.2478 67.1999 77.8 67.1999H80.6C81.1523 67.1999 81.6 66.7522 81.6 66.1999V63.3999C81.6 62.8476 81.1523 62.3999 80.6 62.3999Z" fill="#383838"/>
<path d="M99.8 62.3999H97C96.4477 62.3999 96 62.8476 96 63.3999V66.1999C96 66.7522 96.4477 67.1999 97 67.1999H99.8C100.352 67.1999 100.8 66.7522 100.8 66.1999V63.3999C100.8 62.8476 100.352 62.3999 99.8 62.3999Z" fill="#383838"/>
<path d="M114.2 62.3999H111.4C110.848 62.3999 110.4 62.8476 110.4 63.3999V66.1999C110.4 66.7522 110.848 67.1999 111.4 67.1999H114.2C114.752 67.1999 115.2 66.7522 115.2 66.1999V63.3999C115.2 62.8476 114.752 62.3999 114.2 62.3999Z" fill="#383838"/>
<path d="M13.4001 67.2H10.6001C10.0478 67.2 9.6001 67.6477 9.6001 68.2V71C9.6001 71.5522 10.0478 72 10.6001 72H13.4001C13.9524 72 14.4001 71.5522 14.4001 71V68.2C14.4001 67.6477 13.9524 67.2 13.4001 67.2Z" fill="#383838"/>
<path d="M27.8 67.2H25C24.4477 67.2 24 67.6477 24 68.2V71C24 71.5522 24.4477 72 25 72H27.8C28.3523 72 28.8 71.5522 28.8 71V68.2C28.8 67.6477 28.3523 67.2 27.8 67.2Z" fill="#383838"/>
<path d="M32.6 67.2H29.8C29.2478 67.2 28.8 67.6477 28.8 68.2V71C28.8 71.5522 29.2478 72 29.8 72H32.6C33.1523 72 33.6 71.5522 33.6 71V68.2C33.6 67.6477 33.1523 67.2 32.6 67.2Z" fill="#383838"/>
<path d="M37.4001 67.2H34.6001C34.0478 67.2 33.6001 67.6477 33.6001 68.2V71C33.6001 71.5522 34.0478 72 34.6001 72H37.4001C37.9524 72 38.4001 71.5522 38.4001 71V68.2C38.4001 67.6477 37.9524 67.2 37.4001 67.2Z" fill="#383838"/>
<path d="M47 67.2H44.2C43.6477 67.2 43.2 67.6477 43.2 68.2V71C43.2 71.5522 43.6477 72 44.2 72H47C47.5522 72 48 71.5522 48 71V68.2C48 67.6477 47.5522 67.2 47 67.2Z" fill="#383838"/>
<path d="M75.8 67.2H73C72.4477 67.2 72 67.6477 72 68.2V71C72 71.5522 72.4477 72 73 72H75.8C76.3523 72 76.8 71.5522 76.8 71V68.2C76.8 67.6477 76.3523 67.2 75.8 67.2Z" fill="#383838"/>
<path d="M80.6 67.2H77.8C77.2478 67.2 76.8 67.6477 76.8 68.2V71C76.8 71.5522 77.2478 72 77.8 72H80.6C81.1523 72 81.6 71.5522 81.6 71V68.2C81.6 67.6477 81.1523 67.2 80.6 67.2Z" fill="#383838"/>
<path d="M85.4001 67.2H82.6001C82.0478 67.2 81.6001 67.6477 81.6001 68.2V71C81.6001 71.5522 82.0478 72 82.6001 72H85.4001C85.9524 72 86.4001 71.5522 86.4001 71V68.2C86.4001 67.6477 85.9524 67.2 85.4001 67.2Z" fill="#383838"/>
<path d="M95 67.2H92.2C91.6477 67.2 91.2 67.6477 91.2 68.2V71C91.2 71.5522 91.6477 72 92.2 72H95C95.5522 72 96 71.5522 96 71V68.2C96 67.6477 95.5522 67.2 95 67.2Z" fill="#383838"/>
<path d="M99.8 67.2H97C96.4477 67.2 96 67.6477 96 68.2V71C96 71.5522 96.4477 72 97 72H99.8C100.352 72 100.8 71.5522 100.8 71V68.2C100.8 67.6477 100.352 67.2 99.8 67.2Z" fill="#383838"/>
<path d="M104.6 67.2H101.8C101.248 67.2 100.8 67.6477 100.8 68.2V71C100.8 71.5522 101.248 72 101.8 72H104.6C105.152 72 105.6 71.5522 105.6 71V68.2C105.6 67.6477 105.152 67.2 104.6 67.2Z" fill="#383838"/>
<path d="M109.4 67.2H106.6C106.048 67.2 105.6 67.6477 105.6 68.2V71C105.6 71.5522 106.048 72 106.6 72H109.4C109.952 72 110.4 71.5522 110.4 71V68.2C110.4 67.6477 109.952 67.2 109.4 67.2Z" fill="#383838"/>
<path d="M13.4001 72H10.6001C10.0478 72 9.6001 72.4477 9.6001 73V75.8C9.6001 76.3523 10.0478 76.8 10.6001 76.8H13.4001C13.9524 76.8 14.4001 76.3523 14.4001 75.8V73C14.4001 72.4477 13.9524 72 13.4001 72Z" fill="#383838"/>
<path d="M18.1999 72H15.3999C14.8476 72 14.3999 72.4477 14.3999 73V75.8C14.3999 76.3523 14.8476 76.8 15.3999 76.8H18.1999C18.7522 76.8 19.1999 76.3523 19.1999 75.8V73C19.1999 72.4477 18.7522 72 18.1999 72Z" fill="#383838"/>
<path d="M27.8 72H25C24.4477 72 24 72.4477 24 73V75.8C24 76.3523 24.4477 76.8 25 76.8H27.8C28.3523 76.8 28.8 76.3523 28.8 75.8V73C28.8 72.4477 28.3523 72 27.8 72Z" fill="#383838"/>
<path d="M42.1999 72H39.3999C38.8476 72 38.3999 72.4477 38.3999 73V75.8C38.3999 76.3523 38.8476 76.8 39.3999 76.8H42.1999C42.7522 76.8 43.1999 76.3523 43.1999 75.8V73C43.1999 72.4477 42.7522 72 42.1999 72Z" fill="#383838"/>
<path d="M61.4001 72H58.6001C58.0478 72 57.6001 72.4477 57.6001 73V75.8C57.6001 76.3523 58.0478 76.8 58.6001 76.8H61.4001C61.9524 76.8 62.4001 76.3523 62.4001 75.8V73C62.4001 72.4477 61.9524 72 61.4001 72Z" fill="#383838"/>
<path d="M71 72H68.2C67.6477 72 67.2 72.4477 67.2 73V75.8C67.2 76.3523 67.6477 76.8 68.2 76.8H71C71.5522 76.8 72 76.3523 72 75.8V73C72 72.4477 71.5522 72 71 72Z" fill="#383838"/>
<path d="M95 72H92.2C91.6477 72 91.2 72.4477 91.2 73V75.8C91.2 76.3523 91.6477 76.8 92.2 76.8H95C95.5522 76.8 96 76.3523 96 75.8V73C96 72.4477 95.5522 72 95 72Z" fill="#383838"/>
<path d="M99.8 72H97C96.4477 72 96 72.4477 96 73V75.8C96 76.3523 96.4477 76.8 97 76.8H99.8C100.352 76.8 100.8 76.3523 100.8 75.8V73C100.8 72.4477 100.352 72 99.8 72Z" fill="#383838"/>
<path d="M109.4 72H106.6C106.048 72 105.6 72.4477 105.6 73V75.8C105.6 76.3523 106.048 76.8 106.6 76.8H109.4C109.952 76.8 110.4 76.3523 110.4 75.8V73C110.4 72.4477 109.952 72 109.4 72Z" fill="#383838"/>
<path d="M114.2 72H111.4C110.848 72 110.4 72.4477 110.4 73V75.8C110.4 76.3523 110.848 76.8 111.4 76.8H114.2C114.752 76.8 115.2 76.3523 115.2 75.8V73C115.2 72.4477 114.752 72 114.2 72Z" fill="#383838"/>
<path d="M3.8 76.8H1C0.447715 76.8 0 77.2478 0 77.8V80.6C0 81.1523 0.447715 81.6 0.999999 81.6H3.8C4.35228 81.6 4.8 81.1523 4.8 80.6V77.8C4.8 77.2478 4.35229 76.8 3.8 76.8Z" fill="#383838"/>
<path d="M8.60005 76.8H5.80005C5.24776 76.8 4.80005 77.2478 4.80005 77.8V80.6C4.80005 81.1523 5.24776 81.6 5.80005 81.6H8.60005C9.15233 81.6 9.60005 81.1523 9.60005 80.6V77.8C9.60005 77.2478 9.15233 76.8 8.60005 76.8Z" fill="#383838"/>
<path d="M23 76.8H20.2C19.6477 76.8 19.2 77.2478 19.2 77.8V80.6C19.2 81.1523 19.6477 81.6 20.2 81.6H23C23.5522 81.6 24 81.1523 24 80.6V77.8C24 77.2478 23.5522 76.8 23 76.8Z" fill="#383838"/>
<path d="M32.6 76.8H29.8C29.2478 76.8 28.8 77.2478 28.8 77.8V80.6C28.8 81.1523 29.2478 81.6 29.8 81.6H32.6C33.1523 81.6 33.6 81.1523 33.6 80.6V77.8C33.6 77.2478 33.1523 76.8 32.6 76.8Z" fill="#383838"/>
<path d="M56.6 76.8H53.8C53.2478 76.8 52.8 77.2478 52.8 77.8V80.6C52.8 81.1523 53.2478 81.6 53.8 81.6H56.6C57.1523 81.6 57.6 81.1523 57.6 80.6V77.8C57.6 77.2478 57.1523 76.8 56.6 76.8Z" fill="#383838"/>
<path d="M66.1999 76.8H63.3999C62.8476 76.8 62.3999 77.2478 62.3999 77.8V80.6C62.3999 81.1523 62.8476 81.6 63.3999 81.6H66.1999C66.7522 81.6 67.1999 81.1523 67.1999 80.6V77.8C67.1999 77.2478 66.7522 76.8 66.1999 76.8Z" fill="#383838"/>
<path d="M71 76.8H68.2C67.6477 76.8 67.2 77.2478 67.2 77.8V80.6C67.2 81.1523 67.6477 81.6 68.2 81.6H71C71.5522 81.6 72 81.1523 72 80.6V77.8C72 77.2478 71.5522 76.8 71 76.8Z" fill="#383838"/>
<path d="M75.8 76.8H73C72.4477 76.8 72 77.2478 72 77.8V80.6C72 81.1523 72.4477 81.6 73 81.6H75.8C76.3523 81.6 76.8 81.1523 76.8 80.6V77.8C76.8 77.2478 76.3523 76.8 75.8 76.8Z" fill="#383838"/>
<path d="M80.6 76.8H77.8C77.2478 76.8 76.8 77.2478 76.8 77.8V80.6C76.8 81.1523 77.2478 81.6 77.8 81.6H80.6C81.1523 81.6 81.6 81.1523 81.6 80.6V77.8C81.6 77.2478 81.1523 76.8 80.6 76.8Z" fill="#383838"/>
<path d="M85.4001 76.8H82.6001C82.0478 76.8 81.6001 77.2478 81.6001 77.8V80.6C81.6001 81.1523 82.0478 81.6 82.6001 81.6H85.4001C85.9524 81.6 86.4001 81.1523 86.4001 80.6V77.8C86.4001 77.2478 85.9524 76.8 85.4001 76.8Z" fill="#383838"/>
<path d="M90.1999 76.8H87.3999C86.8476 76.8 86.3999 77.2478 86.3999 77.8V80.6C86.3999 81.1523 86.8476 81.6 87.3999 81.6H90.1999C90.7522 81.6 91.1999 81.1523 91.1999 80.6V77.8C91.1999 77.2478 90.7522 76.8 90.1999 76.8Z" fill="#383838"/>
<path d="M95 76.8H92.2C91.6477 76.8 91.2 77.2478 91.2 77.8V80.6C91.2 81.1523 91.6477 81.6 92.2 81.6H95C95.5522 81.6 96 81.1523 96 80.6V77.8C96 77.2478 95.5522 76.8 95 76.8Z" fill="#383838"/>
<path d="M99.8 76.8H97C96.4477 76.8 96 77.2478 96 77.8V80.6C96 81.1523 96.4477 81.6 97 81.6H99.8C100.352 81.6 100.8 81.1523 100.8 80.6V77.8C100.8 77.2478 100.352 76.8 99.8 76.8Z" fill="#383838"/>
<path d="M104.6 76.8H101.8C101.248 76.8 100.8 77.2478 100.8 77.8V80.6C100.8 81.1523 101.248 81.6 101.8 81.6H104.6C105.152 81.6 105.6 81.1523 105.6 80.6V77.8C105.6 77.2478 105.152 76.8 104.6 76.8Z" fill="#383838"/>
<path d="M109.4 76.8H106.6C106.048 76.8 105.6 77.2478 105.6 77.8V80.6C105.6 81.1523 106.048 81.6 106.6 81.6H109.4C109.952 81.6 110.4 81.1523 110.4 80.6V77.8C110.4 77.2478 109.952 76.8 109.4 76.8Z" fill="#383838"/>
<path d="M42.1999 81.6001H39.3999C38.8476 81.6001 38.3999 82.0478 38.3999 82.6001V85.4001C38.3999 85.9524 38.8476 86.4001 39.3999 86.4001H42.1999C42.7522 86.4001 43.1999 85.9524 43.1999 85.4001V82.6001C43.1999 82.0478 42.7522 81.6001 42.1999 81.6001Z" fill="#383838"/>
<path d="M47 81.6001H44.2C43.6477 81.6001 43.2 82.0478 43.2 82.6001V85.4001C43.2 85.9524 43.6477 86.4001 44.2 86.4001H47C47.5522 86.4001 48 85.9524 48 85.4001V82.6001C48 82.0478 47.5522 81.6001 47 81.6001Z" fill="#383838"/>
<path d="M61.4001 81.6001H58.6001C58.0478 81.6001 57.6001 82.0478 57.6001 82.6001V85.4001C57.6001 85.9524 58.0478 86.4001 58.6001 86.4001H61.4001C61.9524 86.4001 62.4001 85.9524 62.4001 85.4001V82.6001C62.4001 82.0478 61.9524 81.6001 61.4001 81.6001Z" fill="#383838"/>
<path d="M80.6 81.6001H77.8C77.2478 81.6001 76.8 82.0478 76.8 82.6001V85.4001C76.8 85.9524 77.2478 86.4001 77.8 86.4001H80.6C81.1523 86.4001 81.6 85.9524 81.6 85.4001V82.6001C81.6 82.0478 81.1523 81.6001 80.6 81.6001Z" fill="#383838"/>
<path d="M99.8 81.6001H97C96.4477 81.6001 96 82.0478 96 82.6001V85.4001C96 85.9524 96.4477 86.4001 97 86.4001H99.8C100.352 86.4001 100.8 85.9524 100.8 85.4001V82.6001C100.8 82.0478 100.352 81.6001 99.8 81.6001Z" fill="#383838"/>
<path d="M42.1999 86.3999H39.3999C38.8476 86.3999 38.3999 86.8476 38.3999 87.3999V90.1999C38.3999 90.7522 38.8476 91.1999 39.3999 91.1999H42.1999C42.7522 91.1999 43.1999 90.7522 43.1999 90.1999V87.3999C43.1999 86.8476 42.7522 86.3999 42.1999 86.3999Z" fill="#383838"/>
<path d="M56.6 86.3999H53.8C53.2478 86.3999 52.8 86.8476 52.8 87.3999V90.1999C52.8 90.7522 53.2478 91.1999 53.8 91.1999H56.6C57.1523 91.1999 57.6 90.7522 57.6 90.1999V87.3999C57.6 86.8476 57.1523 86.3999 56.6 86.3999Z" fill="#383838"/>
<path d="M61.4001 86.3999H58.6001C58.0478 86.3999 57.6001 86.8476 57.6001 87.3999V90.1999C57.6001 90.7522 58.0478 91.1999 58.6001 91.1999H61.4001C61.9524 91.1999 62.4001 90.7522 62.4001 90.1999V87.3999C62.4001 86.8476 61.9524 86.3999 61.4001 86.3999Z" fill="#383838"/>
<path d="M66.1999 86.3999H63.3999C62.8476 86.3999 62.3999 86.8476 62.3999 87.3999V90.1999C62.3999 90.7522 62.8476 91.1999 63.3999 91.1999H66.1999C66.7522 91.1999 67.1999 90.7522 67.1999 90.1999V87.3999C67.1999 86.8476 66.7522 86.3999 66.1999 86.3999Z" fill="#383838"/>
<path d="M71 86.3999H68.2C67.6477 86.3999 67.2 86.8476 67.2 87.3999V90.1999C67.2 90.7522 67.6477 91.1999 68.2 91.1999H71C71.5522 91.1999 72 90.7522 72 90.1999V87.3999C72 86.8476 71.5522 86.3999 71 86.3999Z" fill="#383838"/>
<path d="M80.6 86.3999H77.8C77.2478 86.3999 76.8 86.8476 76.8 87.3999V90.1999C76.8 90.7522 77.2478 91.1999 77.8 91.1999H80.6C81.1523 91.1999 81.6 90.7522 81.6 90.1999V87.3999C81.6 86.8476 81.1523 86.3999 80.6 86.3999Z" fill="#383838"/>
<path d="M90.1999 86.3999H87.3999C86.8476 86.3999 86.3999 86.8476 86.3999 87.3999V90.1999C86.3999 90.7522 86.8476 91.1999 87.3999 91.1999H90.1999C90.7522 91.1999 91.1999 90.7522 91.1999 90.1999V87.3999C91.1999 86.8476 90.7522 86.3999 90.1999 86.3999Z" fill="#383838"/>
<path d="M99.8 86.3999H97C96.4477 86.3999 96 86.8476 96 87.3999V90.1999C96 90.7522 96.4477 91.1999 97 91.1999H99.8C100.352 91.1999 100.8 90.7522 100.8 90.1999V87.3999C100.8 86.8476 100.352 86.3999 99.8 86.3999Z" fill="#383838"/>
<path d="M47 91.2H44.2C43.6477 91.2 43.2 91.6477 43.2 92.2V95C43.2 95.5522 43.6477 96 44.2 96H47C47.5522 96 48 95.5522 48 95V92.2C48 91.6477 47.5522 91.2 47 91.2Z" fill="#383838"/>
<path d="M51.8 91.2H49C48.4477 91.2 48 91.6477 48 92.2V95C48 95.5522 48.4477 96 49 96H51.8C52.3523 96 52.8 95.5522 52.8 95V92.2C52.8 91.6477 52.3523 91.2 51.8 91.2Z" fill="#383838"/>
<path d="M56.6 91.2H53.8C53.2478 91.2 52.8 91.6477 52.8 92.2V95C52.8 95.5522 53.2478 96 53.8 96H56.6C57.1523 96 57.6 95.5522 57.6 95V92.2C57.6 91.6477 57.1523 91.2 56.6 91.2Z" fill="#383838"/>
<path d="M66.1999 91.2H63.3999C62.8476 91.2 62.3999 91.6477 62.3999 92.2V95C62.3999 95.5522 62.8476 96 63.3999 96H66.1999C66.7522 96 67.1999 95.5522 67.1999 95V92.2C67.1999 91.6477 66.7522 91.2 66.1999 91.2Z" fill="#383838"/>
<path d="M75.8 91.2H73C72.4477 91.2 72 91.6477 72 92.2V95C72 95.5522 72.4477 96 73 96H75.8C76.3523 96 76.8 95.5522 76.8 95V92.2C76.8 91.6477 76.3523 91.2 75.8 91.2Z" fill="#383838"/>
<path d="M80.6 91.2H77.8C77.2478 91.2 76.8 91.6477 76.8 92.2V95C76.8 95.5522 77.2478 96 77.8 96H80.6C81.1523 96 81.6 95.5522 81.6 95V92.2C81.6 91.6477 81.1523 91.2 80.6 91.2Z" fill="#383838"/>
<path d="M99.8 91.2H97C96.4477 91.2 96 91.6477 96 92.2V95C96 95.5522 96.4477 96 97 96H99.8C100.352 96 100.8 95.5522 100.8 95V92.2C100.8 91.6477 100.352 91.2 99.8 91.2Z" fill="#383838"/>
<path d="M104.6 91.2H101.8C101.248 91.2 100.8 91.6477 100.8 92.2V95C100.8 95.5522 101.248 96 101.8 96H104.6C105.152 96 105.6 95.5522 105.6 95V92.2C105.6 91.6477 105.152 91.2 104.6 91.2Z" fill="#383838"/>
<path d="M109.4 91.2H106.6C106.048 91.2 105.6 91.6477 105.6 92.2V95C105.6 95.5522 106.048 96 106.6 96H109.4C109.952 96 110.4 95.5522 110.4 95V92.2C110.4 91.6477 109.952 91.2 109.4 91.2Z" fill="#383838"/>
<path d="M42.1999 96H39.3999C38.8476 96 38.3999 96.4477 38.3999 97V99.8C38.3999 100.352 38.8476 100.8 39.3999 100.8H42.1999C42.7522 100.8 43.1999 100.352 43.1999 99.8V97C43.1999 96.4477 42.7522 96 42.1999 96Z" fill="#383838"/>
<path d="M51.8 96H49C48.4477 96 48 96.4477 48 97V99.8C48 100.352 48.4477 100.8 49 100.8H51.8C52.3523 100.8 52.8 100.352 52.8 99.8V97C52.8 96.4477 52.3523 96 51.8 96Z" fill="#383838"/>
<path d="M61.4001 96H58.6001C58.0478 96 57.6001 96.4477 57.6001 97V99.8C57.6001 100.352 58.0478 100.8 58.6001 100.8H61.4001C61.9524 100.8 62.4001 100.352 62.4001 99.8V97C62.4001 96.4477 61.9524 96 61.4001 96Z" fill="#383838"/>
<path d="M66.1999 96H63.3999C62.8476 96 62.3999 96.4477 62.3999 97V99.8C62.3999 100.352 62.8476 100.8 63.3999 100.8H66.1999C66.7522 100.8 67.1999 100.352 67.1999 99.8V97C67.1999 96.4477 66.7522 96 66.1999 96Z" fill="#383838"/>
<path d="M80.6 96H77.8C77.2478 96 76.8 96.4477 76.8 97V99.8C76.8 100.352 77.2478 100.8 77.8 100.8H80.6C81.1523 100.8 81.6 100.352 81.6 99.8V97C81.6 96.4477 81.1523 96 80.6 96Z" fill="#383838"/>
<path d="M85.4001 96H82.6001C82.0478 96 81.6001 96.4477 81.6001 97V99.8C81.6001 100.352 82.0478 100.8 82.6001 100.8H85.4001C85.9524 100.8 86.4001 100.352 86.4001 99.8V97C86.4001 96.4477 85.9524 96 85.4001 96Z" fill="#383838"/>
<path d="M90.1999 96H87.3999C86.8476 96 86.3999 96.4477 86.3999 97V99.8C86.3999 100.352 86.8476 100.8 87.3999 100.8H90.1999C90.7522 100.8 91.1999 100.352 91.1999 99.8V97C91.1999 96.4477 90.7522 96 90.1999 96Z" fill="#383838"/>
<path d="M95 96H92.2C91.6477 96 91.2 96.4477 91.2 97V99.8C91.2 100.352 91.6477 100.8 92.2 100.8H95C95.5522 100.8 96 100.352 96 99.8V97C96 96.4477 95.5522 96 95 96Z" fill="#383838"/>
<path d="M99.8 96H97C96.4477 96 96 96.4477 96 97V99.8C96 100.352 96.4477 100.8 97 100.8H99.8C100.352 100.8 100.8 100.352 100.8 99.8V97C100.8 96.4477 100.352 96 99.8 96Z" fill="#383838"/>
<path d="M104.6 96H101.8C101.248 96 100.8 96.4477 100.8 97V99.8C100.8 100.352 101.248 100.8 101.8 100.8H104.6C105.152 100.8 105.6 100.352 105.6 99.8V97C105.6 96.4477 105.152 96 104.6 96Z" fill="#383838"/>
<path d="M109.4 96H106.6C106.048 96 105.6 96.4477 105.6 97V99.8C105.6 100.352 106.048 100.8 106.6 100.8H109.4C109.952 100.8 110.4 100.352 110.4 99.8V97C110.4 96.4477 109.952 96 109.4 96Z" fill="#383838"/>
<path d="M119 96H116.2C115.648 96 115.2 96.4477 115.2 97V99.8C115.2 100.352 115.648 100.8 116.2 100.8H119C119.552 100.8 120 100.352 120 99.8V97C120 96.4477 119.552 96 119 96Z" fill="#383838"/>
<path d="M47 100.8H44.2C43.6477 100.8 43.2 101.248 43.2 101.8V104.6C43.2 105.152 43.6477 105.6 44.2 105.6H47C47.5522 105.6 48 105.152 48 104.6V101.8C48 101.248 47.5522 100.8 47 100.8Z" fill="#383838"/>
<path d="M51.8 100.8H49C48.4477 100.8 48 101.248 48 101.8V104.6C48 105.152 48.4477 105.6 49 105.6H51.8C52.3523 105.6 52.8 105.152 52.8 104.6V101.8C52.8 101.248 52.3523 100.8 51.8 100.8Z" fill="#383838"/>
<path d="M66.1999 100.8H63.3999C62.8476 100.8 62.3999 101.248 62.3999 101.8V104.6C62.3999 105.152 62.8476 105.6 63.3999 105.6H66.1999C66.7522 105.6 67.1999 105.152 67.1999 104.6V101.8C67.1999 101.248 66.7522 100.8 66.1999 100.8Z" fill="#383838"/>
<path d="M71 100.8H68.2C67.6477 100.8 67.2 101.248 67.2 101.8V104.6C67.2 105.152 67.6477 105.6 68.2 105.6H71C71.5522 105.6 72 105.152 72 104.6V101.8C72 101.248 71.5522 100.8 71 100.8Z" fill="#383838"/>
<path d="M85.4001 100.8H82.6001C82.0478 100.8 81.6001 101.248 81.6001 101.8V104.6C81.6001 105.152 82.0478 105.6 82.6001 105.6H85.4001C85.9524 105.6 86.4001 105.152 86.4001 104.6V101.8C86.4001 101.248 85.9524 100.8 85.4001 100.8Z" fill="#383838"/>
<path d="M90.1999 100.8H87.3999C86.8476 100.8 86.3999 101.248 86.3999 101.8V104.6C86.3999 105.152 86.8476 105.6 87.3999 105.6H90.1999C90.7522 105.6 91.1999 105.152 91.1999 104.6V101.8C91.1999 101.248 90.7522 100.8 90.1999 100.8Z" fill="#383838"/>
<path d="M95 100.8H92.2C91.6477 100.8 91.2 101.248 91.2 101.8V104.6C91.2 105.152 91.6477 105.6 92.2 105.6H95C95.5522 105.6 96 105.152 96 104.6V101.8C96 101.248 95.5522 100.8 95 100.8Z" fill="#383838"/>
<path d="M109.4 100.8H106.6C106.048 100.8 105.6 101.248 105.6 101.8V104.6C105.6 105.152 106.048 105.6 106.6 105.6H109.4C109.952 105.6 110.4 105.152 110.4 104.6V101.8C110.4 101.248 109.952 100.8 109.4 100.8Z" fill="#383838"/>
<path d="M114.2 100.8H111.4C110.848 100.8 110.4 101.248 110.4 101.8V104.6C110.4 105.152 110.848 105.6 111.4 105.6H114.2C114.752 105.6 115.2 105.152 115.2 104.6V101.8C115.2 101.248 114.752 100.8 114.2 100.8Z" fill="#383838"/>
<path d="M119 100.8H116.2C115.648 100.8 115.2 101.248 115.2 101.8V104.6C115.2 105.152 115.648 105.6 116.2 105.6H119C119.552 105.6 120 105.152 120 104.6V101.8C120 101.248 119.552 100.8 119 100.8Z" fill="#383838"/>
<path d="M51.8 105.6H49C48.4477 105.6 48 106.048 48 106.6V109.4C48 109.952 48.4477 110.4 49 110.4H51.8C52.3523 110.4 52.8 109.952 52.8 109.4V106.6C52.8 106.048 52.3523 105.6 51.8 105.6Z" fill="#383838"/>
<path d="M80.6 105.6H77.8C77.2478 105.6 76.8 106.048 76.8 106.6V109.4C76.8 109.952 77.2478 110.4 77.8 110.4H80.6C81.1523 110.4 81.6 109.952 81.6 109.4V106.6C81.6 106.048 81.1523 105.6 80.6 105.6Z" fill="#383838"/>
<path d="M85.4001 105.6H82.6001C82.0478 105.6 81.6001 106.048 81.6001 106.6V109.4C81.6001 109.952 82.0478 110.4 82.6001 110.4H85.4001C85.9524 110.4 86.4001 109.952 86.4001 109.4V106.6C86.4001 106.048 85.9524 105.6 85.4001 105.6Z" fill="#383838"/>
<path d="M90.1999 105.6H87.3999C86.8476 105.6 86.3999 106.048 86.3999 106.6V109.4C86.3999 109.952 86.8476 110.4 87.3999 110.4H90.1999C90.7522 110.4 91.1999 109.952 91.1999 109.4V106.6C91.1999 106.048 90.7522 105.6 90.1999 105.6Z" fill="#383838"/>
<path d="M104.6 105.6H101.8C101.248 105.6 100.8 106.048 100.8 106.6V109.4C100.8 109.952 101.248 110.4 101.8 110.4H104.6C105.152 110.4 105.6 109.952 105.6 109.4V106.6C105.6 106.048 105.152 105.6 104.6 105.6Z" fill="#383838"/>
<path d="M114.2 105.6H111.4C110.848 105.6 110.4 106.048 110.4 106.6V109.4C110.4 109.952 110.848 110.4 111.4 110.4H114.2C114.752 110.4 115.2 109.952 115.2 109.4V106.6C115.2 106.048 114.752 105.6 114.2 105.6Z" fill="#383838"/>
<path d="M47 110.4H44.2C43.6477 110.4 43.2 110.848 43.2 111.4V114.2C43.2 114.752 43.6477 115.2 44.2 115.2H47C47.5522 115.2 48 114.752 48 114.2V111.4C48 110.848 47.5522 110.4 47 110.4Z" fill="#383838"/>
<path d="M61.4001 110.4H58.6001C58.0478 110.4 57.6001 110.848 57.6001 111.4V114.2C57.6001 114.752 58.0478 115.2 58.6001 115.2H61.4001C61.9524 115.2 62.4001 114.752 62.4001 114.2V111.4C62.4001 110.848 61.9524 110.4 61.4001 110.4Z" fill="#383838"/>
<path d="M71 110.4H68.2C67.6477 110.4 67.2 110.848 67.2 111.4V114.2C67.2 114.752 67.6477 115.2 68.2 115.2H71C71.5522 115.2 72 114.752 72 114.2V111.4C72 110.848 71.5522 110.4 71 110.4Z" fill="#383838"/>
<path d="M75.8 110.4H73C72.4477 110.4 72 110.848 72 111.4V114.2C72 114.752 72.4477 115.2 73 115.2H75.8C76.3523 115.2 76.8 114.752 76.8 114.2V111.4C76.8 110.848 76.3523 110.4 75.8 110.4Z" fill="#383838"/>
<path d="M90.1999 110.4H87.3999C86.8476 110.4 86.3999 110.848 86.3999 111.4V114.2C86.3999 114.752 86.8476 115.2 87.3999 115.2H90.1999C90.7522 115.2 91.1999 114.752 91.1999 114.2V111.4C91.1999 110.848 90.7522 110.4 90.1999 110.4Z" fill="#383838"/>
<path d="M95 110.4H92.2C91.6477 110.4 91.2 110.848 91.2 111.4V114.2C91.2 114.752 91.6477 115.2 92.2 115.2H95C95.5522 115.2 96 114.752 96 114.2V111.4C96 110.848 95.5522 110.4 95 110.4Z" fill="#383838"/>
<path d="M99.8 110.4H97C96.4477 110.4 96 110.848 96 111.4V114.2C96 114.752 96.4477 115.2 97 115.2H99.8C100.352 115.2 100.8 114.752 100.8 114.2V111.4C100.8 110.848 100.352 110.4 99.8 110.4Z" fill="#383838"/>
<path d="M104.6 110.4H101.8C101.248 110.4 100.8 110.848 100.8 111.4V114.2C100.8 114.752 101.248 115.2 101.8 115.2H104.6C105.152 115.2 105.6 114.752 105.6 114.2V111.4C105.6 110.848 105.152 110.4 104.6 110.4Z" fill="#383838"/>
<path d="M109.4 110.4H106.6C106.048 110.4 105.6 110.848 105.6 111.4V114.2C105.6 114.752 106.048 115.2 106.6 115.2H109.4C109.952 115.2 110.4 114.752 110.4 114.2V111.4C110.4 110.848 109.952 110.4 109.4 110.4Z" fill="#383838"/>
<path d="M114.2 110.4H111.4C110.848 110.4 110.4 110.848 110.4 111.4V114.2C110.4 114.752 110.848 115.2 111.4 115.2H114.2C114.752 115.2 115.2 114.752 115.2 114.2V111.4C115.2 110.848 114.752 110.4 114.2 110.4Z" fill="#383838"/>
<path d="M42.1999 115.2H39.3999C38.8476 115.2 38.3999 115.648 38.3999 116.2V119C38.3999 119.552 38.8476 120 39.3999 120H42.1999C42.7522 120 43.1999 119.552 43.1999 119V116.2C43.1999 115.648 42.7522 115.2 42.1999 115.2Z" fill="#383838"/>
<path d="M47 115.2H44.2C43.6477 115.2 43.2 115.648 43.2 116.2V119C43.2 119.552 43.6477 120 44.2 120H47C47.5522 120 48 119.552 48 119V116.2C48 115.648 47.5522 115.2 47 115.2Z" fill="#383838"/>
<path d="M56.6 115.2H53.8C53.2478 115.2 52.8 115.648 52.8 116.2V119C52.8 119.552 53.2478 120 53.8 120H56.6C57.1523 120 57.6 119.552 57.6 119V116.2C57.6 115.648 57.1523 115.2 56.6 115.2Z" fill="#383838"/>
<path d="M66.1999 115.2H63.3999C62.8476 115.2 62.3999 115.648 62.3999 116.2V119C62.3999 119.552 62.8476 120 63.3999 120H66.1999C66.7522 120 67.1999 119.552 67.1999 119V116.2C67.1999 115.648 66.7522 115.2 66.1999 115.2Z" fill="#383838"/>
<path d="M71 115.2H68.2C67.6477 115.2 67.2 115.648 67.2 116.2V119C67.2 119.552 67.6477 120 68.2 120H71C71.5522 120 72 119.552 72 119V116.2C72 115.648 71.5522 115.2 71 115.2Z" fill="#383838"/>
<path d="M75.8 115.2H73C72.4477 115.2 72 115.648 72 116.2V119C72 119.552 72.4477 120 73 120H75.8C76.3523 120 76.8 119.552 76.8 119V116.2C76.8 115.648 76.3523 115.2 75.8 115.2Z" fill="#383838"/>
<path d="M109.4 115.2H106.6C106.048 115.2 105.6 115.648 105.6 116.2V119C105.6 119.552 106.048 120 106.6 120H109.4C109.952 120 110.4 119.552 110.4 119V116.2C110.4 115.648 109.952 115.2 109.4 115.2Z" fill="#383838"/>
<path d="M114.2 115.2H111.4C110.848 115.2 110.4 115.648 110.4 116.2V119C110.4 119.552 110.848 120 111.4 120H114.2C114.752 120 115.2 119.552 115.2 119V116.2C115.2 115.648 114.752 115.2 114.2 115.2Z" fill="#383838"/>
<path d="M119 115.2H116.2C115.648 115.2 115.2 115.648 115.2 116.2V119C115.2 119.552 115.648 120 116.2 120H119C119.552 120 120 119.552 120 119V116.2C120 115.648 119.552 115.2 119 115.2Z" fill="#383838"/>
<path d="M28.56 0H5.04H1C0.447717 0 0 0.447715 0 1V5.04V28.56V32.6C0 33.1523 0.447715 33.6 1 33.6H5.04H28.56H32.6C33.1523 33.6 33.6 33.1523 33.6 32.6V28.56V5.04V1C33.6 0.447717 33.1523 0 32.6 0H28.56ZM28.56 27.56C28.56 28.1123 28.1123 28.56 27.56 28.56H6.04C5.48771 28.56 5.04 28.1123 5.04 27.56V6.04C5.04 5.48771 5.48772 5.04 6.04 5.04H27.56C28.1123 5.04 28.56 5.48772 28.56 6.04V27.56Z" fill="#383838"/>
<path d="M114.96 0H91.4399H87.3999C86.8476 0 86.3999 0.447715 86.3999 1V5.04V28.56V32.6C86.3999 33.1523 86.8476 33.6 87.3999 33.6H91.4399H114.96H119C119.552 33.6 120 33.1523 120 32.6V28.56V5.04V1C120 0.447717 119.552 0 119 0H114.96ZM114.96 27.56C114.96 28.1123 114.512 28.56 113.96 28.56H92.4399C91.8876 28.56 91.4399 28.1123 91.4399 27.56V6.04C91.4399 5.48771 91.8876 5.04 92.4399 5.04H113.96C114.512 5.04 114.96 5.48772 114.96 6.04V27.56Z" fill="#383838"/>
<path d="M28.56 86.3999H5.04H1C0.447717 86.3999 0 86.8476 0 87.3999V91.4399V114.96V119C0 119.552 0.447715 120 1 120H5.04H28.56H32.6C33.1523 120 33.6 119.552 33.6 119V114.96V91.4399V87.3999C33.6 86.8476 33.1523 86.3999 32.6 86.3999H28.56ZM28.56 113.96C28.56 114.512 28.1123 114.96 27.56 114.96H6.04C5.48771 114.96 5.04 114.512 5.04 113.96V92.4399C5.04 91.8876 5.48772 91.4399 6.04 91.4399H27.56C28.1123 91.4399 28.56 91.8876 28.56 92.4399V113.96Z" fill="#383838"/>
<path d="M23.0001 9.6001H10.6001C10.0478 9.6001 9.6001 10.0478 9.6001 10.6001V23.0001C9.6001 23.5524 10.0478 24.0001 10.6001 24.0001H23.0001C23.5524 24.0001 24.0001 23.5524 24.0001 23.0001V10.6001C24.0001 10.0478 23.5524 9.6001 23.0001 9.6001Z" fill="#383838"/>
<path d="M109.4 9.6001H97C96.4477 9.6001 96 10.0478 96 10.6001V23.0001C96 23.5524 96.4477 24.0001 97 24.0001H109.4C109.952 24.0001 110.4 23.5524 110.4 23.0001V10.6001C110.4 10.0478 109.952 9.6001 109.4 9.6001Z" fill="#383838"/>
<path d="M23.0001 96H10.6001C10.0478 96 9.6001 96.4477 9.6001 97V109.4C9.6001 109.952 10.0478 110.4 10.6001 110.4H23.0001C23.5524 110.4 24.0001 109.952 24.0001 109.4V97C24.0001 96.4477 23.5524 96 23.0001 96Z" fill="#383838"/>
<rect x="44" y="44" width="33" height="33" rx="1" fill="white"/>
<path fill-rule="evenodd" clip-rule="evenodd" d="M58.1128 53H54.5417C53.9551 55.314 53.1456 57.3374 52.2547 59.3947C51.7871 60.4703 51.2615 61.2908 50.7243 62.2726C50.5167 62.6529 49 64.7782 49 64.9124C49 64.9479 51.9537 66.8509 52.1629 66.8509C52.7293 66.8509 55.8699 62.0939 56.0738 61.2904L57.669 66.7353H60.291L57.9207 60.3389C57.8288 60.0212 57.7508 59.9295 57.9801 59.6983C58.7812 58.898 59.5276 58.0843 60.325 57.2824C59.5802 56.7166 58.7516 56.2703 57.8697 55.9591C57.1977 55.7138 56.501 55.5428 55.7918 55.4494C56.1115 54.4046 56.9635 53.5246 58.1064 53.0012L58.1128 53ZM59.9188 60.2524C60.0143 60.2541 60.1069 60.284 60.1858 60.3381C60.2643 60.3923 60.325 60.4687 60.3606 60.5572C60.3958 60.6457 60.4043 60.7427 60.3849 60.8361C60.3651 60.9295 60.3185 61.0147 60.2502 61.0818C60.1818 61.1489 60.0956 61.1938 60.0018 61.212C59.9079 61.2302 59.8108 61.2201 59.723 61.1829C59.6348 61.1461 59.5596 61.0839 59.507 61.0046C59.454 60.925 59.4261 60.832 59.4257 60.7367C59.4269 60.6073 59.4795 60.4836 59.5721 60.3927C59.6643 60.3022 59.789 60.2516 59.9188 60.2524ZM60.6276 62.4201C60.7231 62.4217 60.8161 62.4517 60.8946 62.5058C60.9731 62.56 61.0338 62.6364 61.0694 62.7249C61.1046 62.8134 61.1131 62.9104 61.0937 63.0038C61.0739 63.0971 61.0273 63.1824 60.959 63.2495C60.891 63.3162 60.8044 63.3615 60.7106 63.3797C60.6167 63.3979 60.5196 63.3878 60.4318 63.3506C60.3436 63.3138 60.2684 63.2515 60.2158 63.1723C60.1628 63.0931 60.1349 62.9997 60.1349 62.9043C60.1353 62.8401 60.1482 62.7766 60.1729 62.7172C60.198 62.6582 60.2344 62.6044 60.2801 62.5592C60.3258 62.5143 60.3804 62.4787 60.4399 62.4549C60.4998 62.431 60.5637 62.4193 60.6276 62.4201ZM61.2535 64.5708C61.349 64.572 61.442 64.6016 61.5209 64.6557C61.5998 64.7099 61.6609 64.7859 61.6965 64.8744C61.7321 64.9629 61.7406 65.0599 61.7212 65.1537C61.7017 65.2471 61.6548 65.3327 61.5868 65.3998C61.5189 65.4669 61.4323 65.5122 61.3384 65.5304C61.2446 65.5486 61.1475 65.5385 61.0593 65.5017C60.9711 65.4649 60.8958 65.4027 60.8428 65.3234C60.7899 65.2438 60.7615 65.1504 60.7615 65.0551C60.7619 64.9912 60.7749 64.9277 60.8 64.8687C60.825 64.8097 60.8611 64.7564 60.9068 64.7111C60.9525 64.6662 61.0063 64.6307 61.0658 64.6064C61.126 64.583 61.1896 64.5704 61.2535 64.5708ZM60.5734 66.7405C59.9698 64.566 58.873 62.5596 58.271 60.385C58.1929 60.1065 58.1011 59.9978 58.3018 59.7989L60.5686 57.4595L60.5803 57.4441C61.3696 56.8002 62.2657 56.2986 63.2278 55.9627C63.9001 55.717 64.5976 55.5464 65.3076 55.453C64.9864 54.4082 64.1344 53.5283 62.9915 53.0049H66.5047C67.1035 55.3427 67.8908 57.3237 68.7918 59.3996C69.2372 60.3749 69.7392 61.3231 70.2951 62.2403C70.501 62.5972 72.04 64.8089 72.04 64.9176C72.04 64.9908 70.6799 65.7943 70.5095 65.9031C70.302 66.0288 69.0013 66.8561 68.8787 66.8561C68.3176 66.8561 65.2858 62.0992 65.0459 61.2872L63.2265 66.7458H60.5876L60.5734 66.7405Z" fill="#383838"/>
</svg>
