<svg width="18" height="18" viewBox="0 0 18 18" fill="none" xmlns="http://www.w3.org/2000/svg">
<path d="M8.25332 3.44136C8.48518 2.83853 8.60111 2.53711 8.76847 2.44968C8.91352 2.37389 9.08648 2.37389 9.23153 2.44968C9.39889 2.53711 9.51482 2.83853 9.74668 3.44136L10.509 5.42331C10.7205 5.97324 10.8262 6.2482 10.9907 6.47948C11.1364 6.68447 11.3155 6.86356 11.5205 7.00931C11.7518 7.17377 12.0268 7.27952 12.5767 7.49103L14.5586 8.25332C15.1615 8.48518 15.4629 8.60111 15.5503 8.76847C15.6261 8.91352 15.6261 9.08648 15.5503 9.23153C15.4629 9.39889 15.1615 9.51482 14.5586 9.74668L12.5767 10.509C12.0268 10.7205 11.7518 10.8262 11.5205 10.9907C11.3155 11.1364 11.1364 11.3155 10.9907 11.5205C10.8262 11.7518 10.7205 12.0268 10.509 12.5767L9.74668 14.5586C9.51482 15.1615 9.39889 15.4629 9.23153 15.5503C9.08648 15.6261 8.91352 15.6261 8.76847 15.5503C8.60111 15.4629 8.48518 15.1615 8.25332 14.5586L7.49103 12.5767C7.27952 12.0268 7.17377 11.7518 7.00931 11.5205C6.86356 11.3155 6.68447 11.1364 6.47948 10.9907C6.2482 10.8262 5.97324 10.7205 5.42331 10.509L3.44136 9.74668C2.83853 9.51482 2.53711 9.39889 2.44968 9.23153C2.37389 9.08648 2.37389 8.91352 2.44968 8.76847C2.53711 8.60111 2.83853 8.48518 3.44136 8.25332L5.42331 7.49103C5.97324 7.27952 6.2482 7.17377 6.47948 7.00931C6.68446 6.86356 6.86356 6.68446 7.00931 6.47948C7.17377 6.2482 7.27952 5.97324 7.49103 5.42331L8.25332 3.44136Z" fill="#383838" fill-opacity="0.3"/>
</svg>
