<svg width="30" height="30" viewBox="0 0 30 30" fill="none" xmlns="http://www.w3.org/2000/svg">
<path fill-rule="evenodd" clip-rule="evenodd" d="M12.33 7.82993C12.5409 7.61925 12.8269 7.50092 13.125 7.50092C13.4231 7.50092 13.709 7.61925 13.92 7.82993L20.295 14.2049C20.5057 14.4159 20.624 14.7018 20.624 14.9999C20.624 15.2981 20.5057 15.584 20.295 15.7949L13.92 22.1699C13.7067 22.3686 13.4247 22.4768 13.1332 22.4717C12.8418 22.4665 12.5637 22.3485 12.3576 22.1424C12.1514 21.9362 12.0334 21.6582 12.0282 21.3667C12.0231 21.0753 12.1313 20.7932 12.33 20.5799L17.91 14.9999L12.33 9.41993C12.1193 9.20899 12.001 8.92305 12.001 8.62493C12.001 8.3268 12.1193 8.04086 12.33 7.82993Z" fill="#383838"/>
</svg>
