<svg width="24" height="24" viewBox="0 0 24 24" fill="none" xmlns="http://www.w3.org/2000/svg">
<path fill-rule="evenodd" clip-rule="evenodd" d="M10.8 4.19968C9.0496 4.19968 7.37086 4.89504 6.13312 6.13278C4.89538 7.37052 4.20002 9.04925 4.20002 10.7997C4.20002 12.5501 4.89538 14.2288 6.13312 15.4666C7.37086 16.7043 9.0496 17.3997 10.8 17.3997C12.5505 17.3997 14.2292 16.7043 15.4669 15.4666C16.7047 14.2288 17.4 12.5501 17.4 10.7997C17.4 9.04925 16.7047 7.37052 15.4669 6.13278C14.2292 4.89504 12.5505 4.19968 10.8 4.19968ZM2.40002 10.7997C2.40014 9.45649 2.72236 8.1329 3.33966 6.93996C3.95696 5.74701 4.85134 4.7195 5.94777 3.9436C7.0442 3.1677 8.31071 2.66605 9.64106 2.48073C10.9714 2.29541 12.3268 2.43181 13.5935 2.87851C14.8603 3.32521 16.0014 4.06917 16.9213 5.04798C17.8411 6.0268 18.5128 7.21193 18.88 8.50395C19.2472 9.79598 19.2992 11.1572 19.0317 12.4735C18.7642 13.7898 18.1849 15.0227 17.3424 16.0689L21.336 20.0637C21.4244 20.1461 21.4954 20.2454 21.5446 20.3558C21.5938 20.4662 21.6202 20.5854 21.6223 20.7063C21.6245 20.8271 21.6022 20.9471 21.557 21.0592C21.5117 21.1713 21.4443 21.2731 21.3589 21.3585C21.2734 21.444 21.1716 21.5114 21.0595 21.5566C20.9475 21.6019 20.8274 21.6241 20.7066 21.622C20.5858 21.6199 20.4666 21.5934 20.3562 21.5442C20.2458 21.495 20.1464 21.4241 20.064 21.3357L16.0692 17.3421C14.8351 18.3361 13.3449 18.9608 11.7708 19.144C10.1968 19.3271 8.60297 19.0613 7.17356 18.3771C5.74415 17.693 4.53743 16.6184 3.69275 15.2776C2.84808 13.9368 2.39992 12.3844 2.40002 10.7997Z" fill="#383838"/>
</svg>
